<svg xmlns="http://www.w3.org/2000/svg" xmlns:xlink="http://www.w3.org/1999/xlink" width="219.744" height="53" viewBox="0 0 219.744 53">
  <defs>
    <linearGradient id="linear-gradient" x1="-0.968" y1="1.137" x2="0.989" y2="0.389" gradientUnits="objectBoundingBox">
      <stop offset="0" stop-color="#f63cd1"/>
      <stop offset="0.492" stop-color="#f63cd1"/>
      <stop offset="1" stop-color="#7f22ff"/>
    </linearGradient>
  </defs>
  <g id="amwal_logo_e" transform="translate(-144.151 -159.682)">
    <path id="amwal" d="M83.477,21.031a4.619,4.619,0,0,1-2-1.673,4.352,4.352,0,0,1-.692-2.424,4.042,4.042,0,0,1,1.63-3.4,8.31,8.31,0,0,1,5.035-1.24h3.578a2.869,2.869,0,0,0-.894-2.264,3.94,3.94,0,0,0-2.683-.794,7.841,7.841,0,0,0-2.438.389,6.449,6.449,0,0,0-2.034,1.054L81.357,7.53A9.772,9.772,0,0,1,84.4,6.146a13.6,13.6,0,0,1,3.649-.491,8.087,8.087,0,0,1,5.54,1.716,6.574,6.574,0,0,1,1.932,5.178v8.857H91.31V19.474q-1.27,2.165-4.732,2.165A7.352,7.352,0,0,1,83.477,21.031Zm1.689-4.3a1.616,1.616,0,0,0,.677,1.37,3.042,3.042,0,0,0,1.861.506,3.915,3.915,0,0,0,2.048-.534,2.927,2.927,0,0,0,1.27-1.573V14.916H87.934Q85.165,14.916,85.165,16.733Zm14.713,4.674V0h4.5V21.407Zm-29.918,0-3.49-9.636-3.607,9.636H58.536l-5.6-15.521H57.18l3.664,10.5,3.808-10.5H68.46l3.693,10.5,3.779-10.5h3.982L74.289,21.407Zm-23.513,0V13.214a4.21,4.21,0,0,0-.764-2.756,2.688,2.688,0,0,0-2.179-.908A3.214,3.214,0,0,0,41,10.573a4.413,4.413,0,0,0-.922,3.044v7.79h-4.5V13.214q0-3.663-2.942-3.664a3.178,3.178,0,0,0-2.481,1.024,4.413,4.413,0,0,0-.923,3.044v7.79h-4.5V5.886h4.3V7.674a5.667,5.667,0,0,1,2.12-1.5,7.125,7.125,0,0,1,2.756-.52A6.673,6.673,0,0,1,36.87,6.3a5.272,5.272,0,0,1,2.135,1.889,6.373,6.373,0,0,1,2.409-1.875A7.6,7.6,0,0,1,44.6,5.655a6.262,6.262,0,0,1,4.63,1.716,7,7,0,0,1,1.717,5.15v8.886Zm-28.7,0-1.789-4.327H6.577L4.789,21.407H0L9,1.212h4.617l9.03,20.195ZM8.078,13.531h6.4L11.28,5.8Z" transform="translate(200.027 167.76)"/>
    <path id="pay" d="M36.019,25.605a4.469,4.469,0,0,1-1.745-1.054l1.182-2.077A3.857,3.857,0,0,0,38.2,23.6a2.641,2.641,0,0,0,1.688-.534,4.555,4.555,0,0,0,1.225-1.832l.491-1.067L34.85,4.9h2.885l5.337,12.232L48.351,4.9h2.713L43.65,21.725a7.6,7.6,0,0,1-2.294,3.288,5.235,5.235,0,0,1-3.159.953A6.694,6.694,0,0,1,36.019,25.605ZM20.641,19.128a3.978,3.978,0,0,1-1.543-3.26,4.016,4.016,0,0,1,1.471-3.246A7.251,7.251,0,0,1,25.243,11.4h4.386v-.548a3.532,3.532,0,0,0-1.04-2.741,4.377,4.377,0,0,0-3.058-.952,8.077,8.077,0,0,0-2.653.448,6.844,6.844,0,0,0-2.194,1.2L19.531,6.723a8.377,8.377,0,0,1,2.826-1.457,11.834,11.834,0,0,1,3.491-.5A6.912,6.912,0,0,1,30.71,6.319,6.011,6.011,0,0,1,32.4,10.964V20.2H29.772V18.176a4.384,4.384,0,0,1-1.976,1.63,7.558,7.558,0,0,1-3.044.562A6.366,6.366,0,0,1,20.641,19.128Zm1.2-3.375a2.139,2.139,0,0,0,.894,1.817,4.091,4.091,0,0,0,2.481.663,5.148,5.148,0,0,0,2.742-.707,4.056,4.056,0,0,0,1.674-2.006V13.386h-4.27Q21.838,13.386,21.838,15.753ZM0,20.2V0H7.875a9.348,9.348,0,0,1,6.174,1.876A6.361,6.361,0,0,1,16.3,7.04,6.361,6.361,0,0,1,14.049,12.2,9.348,9.348,0,0,1,7.875,14.08H2.884V20.2ZM2.884,11.57h4.9A6.514,6.514,0,0,0,11.972,10.4,4.076,4.076,0,0,0,13.415,7.04a4.076,4.076,0,0,0-1.442-3.361A6.514,6.514,0,0,0,7.789,2.51h-4.9Z" transform="translate(312.831 169.374)" fill="#565656"/>
    <path id="icon" d="M168.251,174.478a6.993,6.993,0,0,0-1.914-.388,7.215,7.215,0,0,0-7.658,6.756c-.01.145-.014.291-.014.441a7.807,7.807,0,0,0,.116,1.308,7.211,7.211,0,1,0,9.471-8.118Zm19.286,5.268a21.073,21.073,0,0,0-.461-3.1v-.005a21.7,21.7,0,0,0-19.266-16.872,21.544,21.544,0,0,0-16.058,5.162,21.9,21.9,0,0,0-4.119,4.721,21.638,21.638,0,0,0,2.966,27.186V181.4c0-.184,0-.373.009-.557a15.284,15.284,0,0,1,16.508-14.666c.267.019.528.049.79.087a14.864,14.864,0,0,1,5.268,1.73,15.418,15.418,0,0,1,6.99,8.007,14.873,14.873,0,0,1,.95,4.313,15.282,15.282,0,0,1-22.334,14.618v7.008a21.633,21.633,0,0,0,2.094.61,21.2,21.2,0,0,0,4.508.572h12.166a2.847,2.847,0,0,1,2.481,1.468,8.418,8.418,0,0,0,7.343,4.3h.227V181.128C187.595,180.662,187.571,180.2,187.537,179.746Z" transform="translate(0)" fill="url(#linear-gradient)"/>
    <g id="Group_5080" data-name="Group 5080" transform="translate(200.239 194.848)">
      <rect id="Rectangle_1864" data-name="Rectangle 1864" width="97" height="18" rx="2" transform="translate(0.14 -0.166)" fill="#aeaeb2"/>
      <path id="Path_24" data-name="Path 24" d="M5.137-12.118a2.163,2.163,0,0,0-1.056.25,2.307,2.307,0,0,0-.781.712v-.762H1.1v6.562H3.362V-9.33a1.048,1.048,0,0,1,.069-.425.9.9,0,0,1,.181-.262.743.743,0,0,1,.287-.187,1.108,1.108,0,0,1,.35-.05.657.657,0,0,1,.462.15.8.8,0,0,1,.162.587v4.162H7.137V-9.33a1.048,1.048,0,0,1,.069-.425.9.9,0,0,1,.181-.262.743.743,0,0,1,.287-.187,1.108,1.108,0,0,1,.35-.05.657.657,0,0,1,.462.15.8.8,0,0,1,.162.587v4.162h2.262V-9.768a2.554,2.554,0,0,0-.531-1.762,1.926,1.926,0,0,0-1.506-.587,2.373,2.373,0,0,0-1.131.256,2.8,2.8,0,0,0-.881.769,1.641,1.641,0,0,0-.669-.762A2.037,2.037,0,0,0,5.137-12.118Zm13.4,4.012v-.712a4.373,4.373,0,0,0-.2-1.362,2.779,2.779,0,0,0-.6-1.044,2.646,2.646,0,0,0-.987-.662,3.7,3.7,0,0,0-1.362-.231,3.865,3.865,0,0,0-1.394.237,2.805,2.805,0,0,0-1.05.694,3.144,3.144,0,0,0-.669,1.125,4.562,4.562,0,0,0-.237,1.531,3.473,3.473,0,0,0,.837,2.5,3.288,3.288,0,0,0,2.487.875,3.565,3.565,0,0,0,2.125-.575,2.567,2.567,0,0,0,1-1.737H16.374a.939.939,0,0,1-1.037.687.993.993,0,0,1-.806-.306,1.856,1.856,0,0,1-.319-1.019Zm-3.15-2.412a1.047,1.047,0,0,1,.781.262,1.286,1.286,0,0,1,.281.862H14.211a1.377,1.377,0,0,1,.325-.825A1.1,1.1,0,0,1,15.386-10.518Zm4.3-1.4v6.562h2.262V-8.718a1.86,1.86,0,0,1,.106-.687,1.039,1.039,0,0,1,.331-.437,1.278,1.278,0,0,1,.481-.206,2.647,2.647,0,0,1,.544-.056q.187,0,.375.019a2.008,2.008,0,0,1,.325.056l.25-1.937a2.9,2.9,0,0,0-.637-.062,2.345,2.345,0,0,0-1.037.219,2.192,2.192,0,0,0-.8.694v-.8ZM31.147-7.881H28.96q-.1.912-.887.912a.8.8,0,0,1-.769-.437,2.658,2.658,0,0,1-.231-1.225,2.594,2.594,0,0,1,.244-1.262.812.812,0,0,1,.756-.425.693.693,0,0,1,.6.256,1.326,1.326,0,0,1,.237.606l2.162-.212a3.077,3.077,0,0,0-.25-.95,2.369,2.369,0,0,0-.556-.781,2.6,2.6,0,0,0-.881-.525,3.614,3.614,0,0,0-1.25-.194,3.9,3.9,0,0,0-1.425.244,2.8,2.8,0,0,0-1.05.7,3.066,3.066,0,0,0-.65,1.112,4.551,4.551,0,0,0-.225,1.481,4.614,4.614,0,0,0,.2,1.387,2.922,2.922,0,0,0,.594,1.081,2.708,2.708,0,0,0,1.019.7,3.874,3.874,0,0,0,1.475.256,3.86,3.86,0,0,0,1.306-.2,2.616,2.616,0,0,0,.931-.556,2.376,2.376,0,0,0,.575-.862A4.175,4.175,0,0,0,31.147-7.881Zm3.3-6.4H32.185v8.924h2.262v-3.8a1.222,1.222,0,0,1,.081-.5,1.085,1.085,0,0,1,.219-.312,1.041,1.041,0,0,1,.75-.287.765.765,0,0,1,.544.181.945.945,0,0,1,.194.694v4.025H38.5V-9.743a2.525,2.525,0,0,0-.556-1.775,2.033,2.033,0,0,0-1.569-.6,2.586,2.586,0,0,0-1.056.212,2.354,2.354,0,0,0-.869.687Zm9.137,6.149v.225a1.1,1.1,0,0,1-.344.881,1.29,1.29,0,0,1-.869.294.928.928,0,0,1-.544-.137.528.528,0,0,1-.194-.462.634.634,0,0,1,.256-.525,1.826,1.826,0,0,1,.969-.237Zm.075,2.775h2.112V-9.43a3.8,3.8,0,0,0-.15-1.106,2.055,2.055,0,0,0-.487-.844,2.239,2.239,0,0,0-.894-.544,4.241,4.241,0,0,0-1.381-.194,3.7,3.7,0,0,0-2.087.512,2.221,2.221,0,0,0-.937,1.562l2.037.162q.112-.65.887-.65a.938.938,0,0,1,.6.187.817.817,0,0,1,.237.675v.262l-.987.05a8.5,8.5,0,0,0-1.237.156,3.16,3.16,0,0,0-1,.375,1.921,1.921,0,0,0-.669.662,1.925,1.925,0,0,0-.244,1.006,2.01,2.01,0,0,0,.181.894,1.766,1.766,0,0,0,.487.612,1.982,1.982,0,0,0,.706.356,3.079,3.079,0,0,0,.837.112,2.5,2.5,0,0,0,1.119-.231,3.045,3.045,0,0,0,.869-.656Zm5.624-6.562h-2.2v6.562h2.262v-3.8a1.222,1.222,0,0,1,.081-.5,1.085,1.085,0,0,1,.219-.312,1.041,1.041,0,0,1,.75-.287.765.765,0,0,1,.544.181.945.945,0,0,1,.194.694v4.025H53.4V-9.743a2.521,2.521,0,0,0-.556-1.781,2.044,2.044,0,0,0-1.569-.594,2.607,2.607,0,0,0-1.094.225,2.376,2.376,0,0,0-.894.75Zm5.962,1.762v2.437a2.731,2.731,0,0,0,.544,1.875,2.377,2.377,0,0,0,1.831.6,5.183,5.183,0,0,0,1.55-.237l-.287-1.65a2.894,2.894,0,0,1-.625.075.872.872,0,0,1-.55-.156.739.739,0,0,1-.2-.606v-2.337h1.425v-1.762H57.507v-1.725H55.245v1.725H54.2v1.762ZM66.494-8.131v.225a1.1,1.1,0,0,1-.344.881,1.29,1.29,0,0,1-.869.294.928.928,0,0,1-.544-.137.528.528,0,0,1-.194-.462.634.634,0,0,1,.256-.525,1.826,1.826,0,0,1,.969-.237Zm.075,2.775h2.112V-9.43a3.8,3.8,0,0,0-.15-1.106,2.056,2.056,0,0,0-.487-.844,2.239,2.239,0,0,0-.894-.544,4.241,4.241,0,0,0-1.381-.194,3.7,3.7,0,0,0-2.087.512,2.221,2.221,0,0,0-.937,1.562l2.037.162q.112-.65.887-.65a.938.938,0,0,1,.6.187.817.817,0,0,1,.237.675v.262l-.987.05a8.5,8.5,0,0,0-1.237.156,3.16,3.16,0,0,0-1,.375,1.921,1.921,0,0,0-.669.662,1.925,1.925,0,0,0-.244,1.006,2.01,2.01,0,0,0,.181.894,1.766,1.766,0,0,0,.487.612,1.982,1.982,0,0,0,.706.356,3.079,3.079,0,0,0,.837.112A2.5,2.5,0,0,0,65.7-5.412a3.045,3.045,0,0,0,.869-.656Zm5.624-6.574h-2.2v9h2.262V-5.943a2.094,2.094,0,0,0,1.725.775,2.631,2.631,0,0,0,1.131-.237,2.4,2.4,0,0,0,.869-.694,3.232,3.232,0,0,0,.556-1.125,5.461,5.461,0,0,0,.194-1.519,4,4,0,0,0-.687-2.5,2.309,2.309,0,0,0-1.937-.887,2.238,2.238,0,0,0-1.912.937Zm.063,3.362v-.187a1.994,1.994,0,0,1,.262-1.137.858.858,0,0,1,.375-.325,1.17,1.17,0,0,1,.45-.087.947.947,0,0,1,.812.394,2.185,2.185,0,0,1,.287,1.269,2.175,2.175,0,0,1-.294,1.281.963.963,0,0,1-.819.394,1.265,1.265,0,0,1-.444-.081.781.781,0,0,1-.369-.294,1.327,1.327,0,0,1-.194-.475A3.432,3.432,0,0,1,72.256-8.568ZM80.08-11.93h-2.2v9h2.262V-5.943a2.094,2.094,0,0,0,1.725.775A2.631,2.631,0,0,0,83-5.406a2.4,2.4,0,0,0,.869-.694,3.232,3.232,0,0,0,.556-1.125,5.46,5.46,0,0,0,.194-1.519,4,4,0,0,0-.687-2.5,2.309,2.309,0,0,0-1.937-.887,2.237,2.237,0,0,0-1.912.937Zm.062,3.362v-.187a1.994,1.994,0,0,1,.262-1.137.858.858,0,0,1,.375-.325,1.17,1.17,0,0,1,.45-.087.947.947,0,0,1,.812.394,2.185,2.185,0,0,1,.287,1.269,2.176,2.176,0,0,1-.294,1.281.963.963,0,0,1-.819.394,1.265,1.265,0,0,1-.444-.081.781.781,0,0,1-.369-.294,1.327,1.327,0,0,1-.194-.475A3.431,3.431,0,0,1,80.143-8.568Z" transform="translate(6.14 17.405)" fill="#fff"/>
    </g>
  </g>
</svg>
