<svg xmlns="http://www.w3.org/2000/svg" width="219.744" height="53" viewBox="0 0 219.744 53">
  <g id="amwal_logo_w" transform="translate(-144.151 -159.682)">
    <path id="amwal" d="M83.477,21.031a4.619,4.619,0,0,1-2-1.673,4.352,4.352,0,0,1-.692-2.424,4.042,4.042,0,0,1,1.63-3.4,8.31,8.31,0,0,1,5.035-1.24h3.578a2.869,2.869,0,0,0-.894-2.264,3.94,3.94,0,0,0-2.683-.794,7.841,7.841,0,0,0-2.438.389,6.449,6.449,0,0,0-2.034,1.054L81.357,7.53A9.772,9.772,0,0,1,84.4,6.146a13.6,13.6,0,0,1,3.649-.491,8.087,8.087,0,0,1,5.54,1.716,6.574,6.574,0,0,1,1.932,5.178v8.857H91.31V19.474q-1.27,2.165-4.732,2.165A7.352,7.352,0,0,1,83.477,21.031Zm1.689-4.3a1.616,1.616,0,0,0,.677,1.37,3.042,3.042,0,0,0,1.861.506,3.915,3.915,0,0,0,2.048-.534,2.927,2.927,0,0,0,1.27-1.573V14.916H87.934Q85.165,14.916,85.165,16.733Zm14.713,4.674V0h4.5V21.407Zm-29.918,0-3.49-9.636-3.607,9.636H58.536l-5.6-15.521H57.18l3.664,10.5,3.808-10.5H68.46l3.693,10.5,3.779-10.5h3.982L74.289,21.407Zm-23.513,0V13.214a4.21,4.21,0,0,0-.764-2.756,2.688,2.688,0,0,0-2.179-.908A3.214,3.214,0,0,0,41,10.573a4.413,4.413,0,0,0-.922,3.044v7.79h-4.5V13.214q0-3.663-2.942-3.664a3.178,3.178,0,0,0-2.481,1.024,4.413,4.413,0,0,0-.923,3.044v7.79h-4.5V5.886h4.3V7.674a5.667,5.667,0,0,1,2.12-1.5,7.125,7.125,0,0,1,2.756-.52A6.673,6.673,0,0,1,36.87,6.3a5.272,5.272,0,0,1,2.135,1.889,6.373,6.373,0,0,1,2.409-1.875A7.6,7.6,0,0,1,44.6,5.655a6.262,6.262,0,0,1,4.63,1.716,7,7,0,0,1,1.717,5.15v8.886Zm-28.7,0-1.789-4.327H6.577L4.789,21.407H0L9,1.212h4.617l9.03,20.195ZM8.078,13.531h6.4L11.28,5.8Z" transform="translate(200.027 167.76)" fill="#fff"/>
    <path id="pay" d="M36.019,25.605a4.469,4.469,0,0,1-1.745-1.054l1.182-2.077A3.857,3.857,0,0,0,38.2,23.6a2.641,2.641,0,0,0,1.688-.534,4.555,4.555,0,0,0,1.225-1.832l.491-1.067L34.85,4.9h2.885l5.337,12.232L48.351,4.9h2.713L43.65,21.725a7.6,7.6,0,0,1-2.294,3.288,5.235,5.235,0,0,1-3.159.953A6.693,6.693,0,0,1,36.019,25.605ZM20.641,19.128a3.978,3.978,0,0,1-1.543-3.26,4.016,4.016,0,0,1,1.471-3.246A7.251,7.251,0,0,1,25.243,11.4h4.386v-.548a3.532,3.532,0,0,0-1.04-2.741,4.377,4.377,0,0,0-3.058-.952,8.077,8.077,0,0,0-2.653.448,6.844,6.844,0,0,0-2.194,1.2L19.531,6.723a8.377,8.377,0,0,1,2.826-1.457,11.834,11.834,0,0,1,3.491-.5A6.912,6.912,0,0,1,30.71,6.319,6.011,6.011,0,0,1,32.4,10.964V20.2H29.772V18.176a4.384,4.384,0,0,1-1.976,1.63,7.558,7.558,0,0,1-3.044.562A6.366,6.366,0,0,1,20.641,19.128Zm1.2-3.375a2.139,2.139,0,0,0,.894,1.817,4.091,4.091,0,0,0,2.481.663,5.148,5.148,0,0,0,2.742-.707,4.056,4.056,0,0,0,1.674-2.006V13.386h-4.27Q21.838,13.386,21.838,15.753ZM0,20.2V0H7.875a9.348,9.348,0,0,1,6.174,1.876A6.361,6.361,0,0,1,16.3,7.04,6.361,6.361,0,0,1,14.049,12.2,9.348,9.348,0,0,1,7.875,14.08H2.884V20.2ZM2.884,11.57h4.9A6.514,6.514,0,0,0,11.972,10.4,4.076,4.076,0,0,0,13.415,7.04a4.076,4.076,0,0,0-1.442-3.361A6.514,6.514,0,0,0,7.789,2.51h-4.9Z" transform="translate(312.831 169.374)" fill="#fff"/>
    <path id="icon" d="M168.251,174.478a6.993,6.993,0,0,0-1.914-.388,7.215,7.215,0,0,0-7.658,6.756c-.01.145-.014.291-.014.441a7.807,7.807,0,0,0,.116,1.308,7.211,7.211,0,1,0,9.471-8.118Zm19.286,5.268a21.072,21.072,0,0,0-.461-3.1v-.005a21.7,21.7,0,0,0-19.266-16.872,21.544,21.544,0,0,0-16.058,5.162,21.9,21.9,0,0,0-4.119,4.721,21.638,21.638,0,0,0,2.966,27.186V181.4c0-.184,0-.373.009-.557a15.284,15.284,0,0,1,16.508-14.666c.266.019.528.049.79.087a14.864,14.864,0,0,1,5.268,1.73,15.418,15.418,0,0,1,6.99,8.007,14.873,14.873,0,0,1,.95,4.313,15.282,15.282,0,0,1-22.334,14.618v7.008a21.623,21.623,0,0,0,2.094.61,21.2,21.2,0,0,0,4.508.572h12.166a2.847,2.847,0,0,1,2.481,1.468,8.418,8.418,0,0,0,7.343,4.3h.227V181.128C187.595,180.662,187.571,180.2,187.537,179.746Z" transform="translate(0)" fill="#fff"/>
    <g id="Group_5080" data-name="Group 5080" transform="translate(200.379 194.682)">
      <path id="Subtraction_5" data-name="Subtraction 5" d="M95,18H2a2,2,0,0,1-2-2V2A2,2,0,0,1,2,0H95a2,2,0,0,1,2,2V16A2,2,0,0,1,95,18ZM83.881,5.641v9h2.263V11.628a2.1,2.1,0,0,0,1.724.775A2.642,2.642,0,0,0,89,12.165a2.408,2.408,0,0,0,.869-.693,3.234,3.234,0,0,0,.556-1.125,5.48,5.48,0,0,0,.193-1.519,4.018,4.018,0,0,0-.687-2.5,2.319,2.319,0,0,0-1.938-.887,2.247,2.247,0,0,0-1.913.937V5.641Zm-7.887,0v9h2.263V11.628a2.1,2.1,0,0,0,1.724.775,2.643,2.643,0,0,0,1.131-.238,2.408,2.408,0,0,0,.869-.693,3.234,3.234,0,0,0,.556-1.125,5.48,5.48,0,0,0,.194-1.519,4.013,4.013,0,0,0-.688-2.5,2.316,2.316,0,0,0-1.937-.887,2.247,2.247,0,0,0-1.912.937V5.641ZM34.135,5.454a3.909,3.909,0,0,0-1.425.244,2.8,2.8,0,0,0-1.049.7A3.084,3.084,0,0,0,31.01,7.51a4.588,4.588,0,0,0-.225,1.481,4.608,4.608,0,0,0,.2,1.387,2.941,2.941,0,0,0,.593,1.082,2.72,2.72,0,0,0,1.019.7,4.369,4.369,0,0,0,2.781.057,2.628,2.628,0,0,0,.932-.556,2.407,2.407,0,0,0,.575-.862,4.19,4.19,0,0,0,.262-1.106H34.961c-.066.6-.365.912-.887.912a.8.8,0,0,1-.769-.437,2.663,2.663,0,0,1-.231-1.225,2.6,2.6,0,0,1,.244-1.262.814.814,0,0,1,.756-.425.693.693,0,0,1,.6.256,1.333,1.333,0,0,1,.238.607L37.073,7.9a3.1,3.1,0,0,0-.25-.95,2.386,2.386,0,0,0-.556-.781,2.6,2.6,0,0,0-.881-.525A3.624,3.624,0,0,0,34.135,5.454Zm-12.748,0a3.887,3.887,0,0,0-1.394.238,2.8,2.8,0,0,0-1.049.693,3.167,3.167,0,0,0-.669,1.125,4.586,4.586,0,0,0-.238,1.531,3.487,3.487,0,0,0,.838,2.5,3.3,3.3,0,0,0,2.487.875,3.579,3.579,0,0,0,2.125-.575,2.576,2.576,0,0,0,1-1.737H22.374a.943.943,0,0,1-1.038.688.994.994,0,0,1-.806-.307,1.856,1.856,0,0,1-.319-1.018h4.325V8.753a4.374,4.374,0,0,0-.2-1.363,2.79,2.79,0,0,0-.6-1.043,2.647,2.647,0,0,0-.987-.662A3.708,3.708,0,0,0,21.387,5.454ZM71.67,7.041a.941.941,0,0,1,.6.188.821.821,0,0,1,.238.675v.262l-.987.05a8.69,8.69,0,0,0-1.237.156,3.173,3.173,0,0,0-1,.375,1.812,1.812,0,0,0-.913,1.669,2.021,2.021,0,0,0,.182.894,1.784,1.784,0,0,0,.487.613,2,2,0,0,0,.706.356,3.069,3.069,0,0,0,.838.112,2.505,2.505,0,0,0,1.118-.231,3.056,3.056,0,0,0,.869-.656v.713h2.112V8.141a3.825,3.825,0,0,0-.15-1.107,2.063,2.063,0,0,0-.488-.843,2.246,2.246,0,0,0-.894-.544,4.25,4.25,0,0,0-1.381-.194,3.712,3.712,0,0,0-2.087.512,2.233,2.233,0,0,0-.938,1.562l2.038.163C70.857,7.26,71.156,7.041,71.67,7.041Zm-22.91,0a.941.941,0,0,1,.6.188A.821.821,0,0,1,49.6,7.9v.262l-.987.05a8.69,8.69,0,0,0-1.237.156,3.174,3.174,0,0,0-1,.375,1.812,1.812,0,0,0-.913,1.669,2.021,2.021,0,0,0,.182.894,1.784,1.784,0,0,0,.487.613,2,2,0,0,0,.706.356,3.069,3.069,0,0,0,.838.112,2.513,2.513,0,0,0,1.119-.231,3.064,3.064,0,0,0,.869-.656v.713h2.112V8.141a3.824,3.824,0,0,0-.15-1.107,2.063,2.063,0,0,0-.488-.843,2.246,2.246,0,0,0-.894-.544,4.25,4.25,0,0,0-1.381-.194,3.712,3.712,0,0,0-2.087.512,2.233,2.233,0,0,0-.938,1.562l2.038.163C47.946,7.26,48.245,7.041,48.759,7.041ZM60.2,5.654V7.416h1.049V9.853a2.74,2.74,0,0,0,.544,1.875,2.383,2.383,0,0,0,1.831.6,5.206,5.206,0,0,0,1.55-.238l-.287-1.65a2.944,2.944,0,0,1-.626.075.879.879,0,0,1-.55-.156.744.744,0,0,1-.2-.607V7.416h1.425V5.654H63.508V3.929H61.245V5.654ZM56.4,7.316a.768.768,0,0,1,.544.181.938.938,0,0,1,.194.694v4.025H59.4V7.828a2.533,2.533,0,0,0-.556-1.781,2.055,2.055,0,0,0-1.569-.593,2.616,2.616,0,0,0-1.094.225,2.376,2.376,0,0,0-.894.75V5.654h-2.2v6.562h2.263v-3.8a1.226,1.226,0,0,1,.081-.5,1.084,1.084,0,0,1,.219-.313A1.044,1.044,0,0,1,56.4,7.316Zm-14.9,0a.768.768,0,0,1,.544.181.938.938,0,0,1,.194.694v4.025H44.5V7.828a2.538,2.538,0,0,0-.556-1.775,2.043,2.043,0,0,0-1.569-.6,2.585,2.585,0,0,0-1.056.212,2.356,2.356,0,0,0-.869.688V3.291H38.185v8.924h2.263v-3.8a1.226,1.226,0,0,1,.081-.5,1.085,1.085,0,0,1,.219-.313A1.044,1.044,0,0,1,41.5,7.316ZM25.686,5.654v6.562h2.263V8.853a1.869,1.869,0,0,1,.106-.688,1.049,1.049,0,0,1,.331-.437,1.289,1.289,0,0,1,.482-.206,2.639,2.639,0,0,1,.544-.056c.122,0,.248.006.374.018a1.978,1.978,0,0,1,.325.057l.25-1.938a2.924,2.924,0,0,0-.637-.062,2.361,2.361,0,0,0-1.038.219,2.2,2.2,0,0,0-.8.694v-.8ZM14.025,7.316a.659.659,0,0,1,.463.15.8.8,0,0,1,.163.587v4.163h2.262V7.8a2.571,2.571,0,0,0-.531-1.763,1.936,1.936,0,0,0-1.506-.587,2.39,2.39,0,0,0-1.131.256,2.813,2.813,0,0,0-.881.769,1.657,1.657,0,0,0-.669-.762,2.053,2.053,0,0,0-1.057-.262,2.174,2.174,0,0,0-1.056.249,2.316,2.316,0,0,0-.781.713V5.654H7.1v6.562H9.363V8.241a1.075,1.075,0,0,1,.068-.426.9.9,0,0,1,.182-.262A.746.746,0,0,1,9.9,7.367a1.09,1.09,0,0,1,.35-.05.659.659,0,0,1,.463.15.8.8,0,0,1,.162.587v4.163h2.263V8.241a1.058,1.058,0,0,1,.069-.426.881.881,0,0,1,.181-.262.746.746,0,0,1,.287-.187A1.09,1.09,0,0,1,14.025,7.316ZM71.282,10.84a.933.933,0,0,1-.544-.138.528.528,0,0,1-.194-.462.639.639,0,0,1,.257-.526,1.825,1.825,0,0,1,.968-.237l.725-.038v.225a1.1,1.1,0,0,1-.344.881A1.3,1.3,0,0,1,71.282,10.84Zm-22.91,0a.933.933,0,0,1-.544-.138.528.528,0,0,1-.193-.462.639.639,0,0,1,.256-.526,1.825,1.825,0,0,1,.968-.237l.725-.038v.225a1.1,1.1,0,0,1-.344.881A1.3,1.3,0,0,1,48.371,10.84ZM87.218,10.6a1.275,1.275,0,0,1-.444-.081.785.785,0,0,1-.369-.293,1.348,1.348,0,0,1-.194-.475A3.443,3.443,0,0,1,86.144,9V8.816a2,2,0,0,1,.262-1.137.859.859,0,0,1,.375-.325,1.17,1.17,0,0,1,.45-.088.951.951,0,0,1,.813.394,2.2,2.2,0,0,1,.287,1.268,2.192,2.192,0,0,1-.293,1.282A.968.968,0,0,1,87.218,10.6Zm-7.887,0a1.275,1.275,0,0,1-.444-.081.784.784,0,0,1-.369-.293,1.348,1.348,0,0,1-.193-.475A3.443,3.443,0,0,1,78.257,9V8.816a2,2,0,0,1,.262-1.137.847.847,0,0,1,.375-.325,1.17,1.17,0,0,1,.45-.088.95.95,0,0,1,.812.394,2.194,2.194,0,0,1,.288,1.268,2.185,2.185,0,0,1-.294,1.282A.965.965,0,0,1,79.331,10.6ZM22.449,8.178H20.212a1.38,1.38,0,0,1,.325-.824,1.1,1.1,0,0,1,.85-.3,1.053,1.053,0,0,1,.781.263,1.286,1.286,0,0,1,.281.861Z" fill="#fff"/>
    </g>
  </g>
</svg>
