<svg xmlns="http://www.w3.org/2000/svg" width="50" height="50" viewBox="0 0 50 50">
  <g id="balance_icon" transform="translate(-172 -572)">
    <g id="dollar-square" transform="translate(172 572)">
      <path id="Vector" d="M3.812,0V5.958l-2.1-.729C.646,4.854,0,4.5,0,2.687A2.586,2.586,0,0,1,2.458,0Z" transform="translate(19.625 16.833)" fill="#7f22ff"/>
      <path id="Vector-2" data-name="Vector" d="M3.812,3.271A2.586,2.586,0,0,1,1.354,5.958H0V0L2.1.729C3.167,1.1,3.812,1.458,3.812,3.271Z" transform="translate(26.563 27.208)" fill="#7f22ff"/>
      <path id="Vector-3" data-name="Vector" d="M29.563,0H12.1C4.521,0,0,4.521,0,12.1V29.563c0,7.583,4.521,12.1,12.1,12.1H29.563c7.583,0,12.1-4.521,12.1-12.1V12.1C41.667,4.521,37.146,0,29.563,0ZM25.542,20.833c1.625.563,3.792,1.75,3.792,5.479a5.7,5.7,0,0,1-5.583,5.813H22.4v1.208a1.563,1.563,0,0,1-3.125,0V32.125h-.75a6.325,6.325,0,0,1-6.188-6.438,1.563,1.563,0,0,1,3.125,0A3.2,3.2,0,0,0,18.521,29h.75V21.937l-3.146-1.1c-1.625-.562-3.792-1.75-3.792-5.479a5.7,5.7,0,0,1,5.583-5.813h1.354V8.333a1.563,1.563,0,0,1,3.125,0V9.542h.75a6.325,6.325,0,0,1,6.188,6.438,1.562,1.562,0,1,1-3.125,0,3.2,3.2,0,0,0-3.062-3.312H22.4v7.062Z" transform="translate(4.167 4.167)" fill="#7f22ff"/>
      <path id="Vector-4" data-name="Vector" d="M0,0H50V50H0Z" fill="none" opacity="0"/>
    </g>
  </g>
</svg>
