<svg xmlns="http://www.w3.org/2000/svg" width="229.273" height="167.932" viewBox="0 0 229.273 167.932">
  <g id="contactless_image" transform="translate(0 0)">
    <path id="Path_8970" data-name="Path 8970" d="M228.929,139.9c-4.8-13.634-9.442-27.323-14.365-40.911-3.159-8.721-9.42-14.532-18.129-17.661-4.767-1.712-9.552-3.385-14.385-4.9a2.715,2.715,0,0,1-2.274-3.13c.072-8.133.189-16.276-.129-24.4a16.578,16.578,0,0,0-12.986-15.494,43.628,43.628,0,0,0-8.887-.613,4.637,4.637,0,0,1-3.458-1.542c-4.218-4.1-8.312-8.4-12.953-11.974A85.157,85.157,0,0,0,106.79,3.69a4.447,4.447,0,0,0-5.475,3.343,4.5,4.5,0,0,0,3.358,5.3c.57.175,1.154.3,1.735.439a76.128,76.128,0,0,1,23.505,9.553c4.627,2.917,8.915,6.373,13.355,9.588l-.372.9c-2.649,0-5.3-.12-7.945.022a17.231,17.231,0,0,0-16.735,17.521c-.066,15.972-.01,31.945-.023,47.917a17.122,17.122,0,0,0,4.648,12.007,1.938,1.938,0,0,1,.5,2.484,13.725,13.725,0,0,0,3.356,15.579c.4.382.8.758,1.343,1.269-1.051.556-1.894,1.02-2.752,1.453a86.488,86.488,0,0,1-48.16,8.951c-18.046-1.734-34.168-8.143-47.654-20.435C17.1,108.3,9.639,94.418,9.049,77.47,8.394,58.645,16.13,43.306,29.815,30.8c10.37-9.473,22.71-15.2,36.314-18.384,3.017-.706,4.4-2.9,3.758-5.575-.593-2.45-2.888-3.69-5.8-3.068A86.135,86.135,0,0,0,42.247,11.55C23.41,21.342,9.538,35.6,3,56.172,1.564,60.683.977,65.463,0,70.12v10.3c.362,2.269.658,4.551,1.1,6.8,3.561,18.311,13.353,32.73,28.1,43.768,30.479,22.818,73.753,24.607,106.2,4.648.6-.369,1.231-.688,1.89-1.053,2.222,4.422,5.438,7.255,10.208,8.2,4.878.969,8.785-1.088,12.473-4.122.257.732.392,1.152.55,1.563,4.87,12.736,14.009,20.542,27.5,22.282,4.476.577,7.782,1.8,10.641,5.162,1.97,2.32,4.674,2.187,6.86-.008q11.139-11.185,22.2-22.451a4.743,4.743,0,0,0,1.218-5.317m-90.424-18.272a4.33,4.33,0,0,1-7.015-1.531c-1.212-2.744-.114-4.351,2.8-4.273,2.939.08,5.882.017,8.823.017l.209.6c-1.6,1.736-3.1,3.572-4.82,5.185m3.712-15.819c.149.244.283.5.733,1.285-3.514-.181-6.714.007-9.759-.594a7.746,7.746,0,0,1-6-7.705q-.074-24.5.012-49.008a7.918,7.918,0,0,1,7.6-7.937q14.2-.287,28.412,0a7.967,7.967,0,0,1,7.514,7.316,24.838,24.838,0,0,1,.124,2.9q.012,18.127.005,36.253v3.03c-2.2-1.975-3.845-3.475-5.516-4.943-6.139-5.392-14.363-5.56-20.39-.43-5.824,4.957-6.929,12.972-2.736,19.829m15.574,22.833a41.45,41.45,0,0,1-5.3,4.409,4.2,4.2,0,0,1-5.846-.4,4.422,4.422,0,0,1-.32-5.9c2.076-2.516,4.326-4.888,6.728-7.575a79.787,79.787,0,0,1,5.143,6.458,3.193,3.193,0,0,1-.407,3.008m61.1,12.648c-5.671,5.6-11.442,11.093-17.372,16.79-2.332-4.4-6.846-4.028-11.391-4.257-13.245-.668-24.015-13.721-22.343-26.87a7.432,7.432,0,0,0-1.775-6.169c-5.216-6.241-10.342-12.558-15.473-18.868-2.522-3.1-2.511-6.43-.054-8.823,2.646-2.576,6.114-2.494,9.2.279q10.658,9.579,21.271,19.206a4.914,4.914,0,0,0,4.9,1.405,4.384,4.384,0,0,0,1.751-7.382c-2.088-2.126-4.411-4.02-6.577-6.073a3.164,3.164,0,0,1-1.137-1.787c-.1-4.388-.052-8.779-.052-13.507.944.261,1.628.415,2.287.64,3.807,1.3,7.62,2.585,11.409,3.936a20.285,20.285,0,0,1,12.872,12.8c4.295,12.074,8.471,24.189,12.634,36.308a2.838,2.838,0,0,1-.153,2.37" transform="translate(0 -1.434)" fill="#7d7d86"/>
    <path id="Path_8971" data-name="Path 8971" d="M139.71,44.432a4.453,4.453,0,0,0-1.834,5.971c.273.61.638,1.179.951,1.771,10.94,20.654,13.1,42.192,6.04,64.472-1.7,5.354-4.416,10.391-6.753,15.533-.8,1.755-1.1,3.413.017,5.079,1,1.49,2.57,2.454,4.2,1.83a7.736,7.736,0,0,0,3.792-3.005,88.81,88.81,0,0,0,11.7-44.434,82.681,82.681,0,0,0-4.681-28.767,173.468,173.468,0,0,0-7.491-16.675,4.177,4.177,0,0,0-5.947-1.774" transform="translate(-55.19 -17.612)" fill="#7d7d86"/>
    <path id="Path_8972" data-name="Path 8972" d="M108.346,62.543c-2.327,1.3-2.87,3.785-1.437,6.6.27.531.559,1.052.83,1.583C115.184,85.241,116.8,100.374,112.1,116c-1.337,4.453-3.563,8.643-5.432,12.932-.774,1.777-1.066,3.692.4,4.981a5.912,5.912,0,0,0,4.27,1.554,6.212,6.212,0,0,0,3.536-2.97,70.9,70.9,0,0,0,9.026-33.572c-.393-3.849-.612-7.726-1.213-11.542a66.36,66.36,0,0,0-7.979-22.623c-1.522-2.673-4.041-3.515-6.367-2.216" transform="translate(-42.59 -24.881)" fill="#7d7d86"/>
    <path id="Path_8973" data-name="Path 8973" d="M77.222,131.673c2.351,1.236,4.767.306,6.3-2.43a47.367,47.367,0,0,0-.083-46.431c-1.452-2.57-3.878-3.449-6.181-2.281-2.4,1.216-3.108,3.787-1.669,6.517q10.037,19.052.011,38.086c-1.43,2.719-.743,5.293,1.626,6.539" transform="translate(-30.063 -32.143)" fill="#7d7d86"/>
    <path id="Path_8974" data-name="Path 8974" d="M46.062,128.176c2.289,1.134,4.7.207,6.136-2.389A26.315,26.315,0,0,0,55.365,113.1a25.488,25.488,0,0,0-3.145-12.165c-1.479-2.7-3.969-3.58-6.342-2.3-2.28,1.233-2.964,3.7-1.61,6.351a17.456,17.456,0,0,1,0,16.712c-1.368,2.7-.6,5.3,1.789,6.476" transform="translate(-17.503 -39.387)" fill="#7d7d86"/>
    <path id="Path_8975" data-name="Path 8975" d="M140.06,8.84a4.361,4.361,0,0,0,4.487-4.3A4.351,4.351,0,0,0,140.295,0a4.472,4.472,0,0,0-4.657,4.41A4.474,4.474,0,0,0,140.06,8.84" transform="translate(-54.482 0)" fill="#7d7d86"/>
  </g>
</svg>
