<svg id="contactless_icon" xmlns="http://www.w3.org/2000/svg" width="31.253" height="27.572" viewBox="0 0 31.253 27.572">
  <path id="Path_8969" data-name="Path 8969" d="M15.39,0h1.539a4.01,4.01,0,0,1,1.735,1.827c.61,1.469,1.3,2.9,1.943,4.359a.8.8,0,0,0,.739.55,12.418,12.418,0,0,1,2.147.349,10.2,10.2,0,0,1,7.314,7.105c.153.477.3.958.447,1.437v2.96c-.071.179-.147.356-.212.537a20.778,20.778,0,0,1-1.1,3.031A10.274,10.274,0,0,1,17.32,26.936a10.124,10.124,0,0,1-6.448-6.749c-.229-.719-.364-1.468-.559-2.272-.916.419-1.787.816-2.658,1.215a2.633,2.633,0,0,1-3.819-1.369c-.826-1.828-1.618-3.671-2.444-5.5C.949,11.282.465,10.321,0,9.352V7.813A3.868,3.868,0,0,1,1.631,6.188c3.442-1.5,6.872-3.031,10.3-4.564C13.093,1.1,14.237.543,15.39,0m5.944,10.677a4.284,4.284,0,0,0-.185-.6c-.731-1.655-1.483-3.3-2.205-4.959-.159-.364-.318-.409-.673-.244-1.48.687-2.976,1.34-4.464,2.012C10.2,8.507,6.606,10.142,3,11.759c-.36.161-.492.306-.305.7.755,1.6,1.48,3.216,2.227,4.821a1.48,1.48,0,0,0,2.217.807c1.85-.825,3.7-1.644,5.55-2.471q3.876-1.735,7.749-3.478a1.426,1.426,0,0,0,.9-1.463M1.2,8.833,17.272,1.617c-.622-.688-1.121-.743-2.045-.329Q11.082,3.145,6.936,5C5.321,5.721,3.7,6.441,2.093,7.172a1.3,1.3,0,0,0-.9,1.661m19.731,4.422a7.061,7.061,0,0,0-1,.282Q17.4,14.661,14.888,15.83a.973.973,0,0,0-.451.51c-.037.1.181.42.293.425a1.578,1.578,0,0,0,.678-.211,1.76,1.76,0,0,0,.312-.268,7.55,7.55,0,0,1,7.472-1.414A8.037,8.037,0,0,1,26.185,16.7c.372.342.848.32.962-.083a.973.973,0,0,0-.247-.8,9.1,9.1,0,0,0-5.972-2.566M20.688,16.1a6.068,6.068,0,0,0-4.125,1.7c-.4.371-.305.943.169,1a1.039,1.039,0,0,0,.663-.276,5.179,5.179,0,0,1,2.879-1.235,4.948,4.948,0,0,1,3.881,1.376c.246.226.486.414.825.163.385-.284.382-.626-.044-1.036a6.071,6.071,0,0,0-4.249-1.7m.032,2.814a3.174,3.174,0,0,0-2.191.834c-.283.234-.463.506-.162.855a.565.565,0,0,0,.876.063,2.268,2.268,0,0,1,3.069.014.891.891,0,0,0,.816-.019c.335-.241.213-.6-.074-.857a3.241,3.241,0,0,0-2.334-.89" fill="#fff"/>
</svg>
