<svg xmlns="http://www.w3.org/2000/svg" width="30" height="30" viewBox="0 0 30 30">
  <g id="dashboard_icon" transform="translate(-236 -252)">
    <g id="status-up" transform="translate(236 252)">
      <path id="Vector" d="M17.738,0H7.262C2.712,0,0,2.712,0,7.262V17.725C0,22.288,2.712,25,7.262,25H17.725c4.55,0,7.262-2.712,7.262-7.262V7.262C25,2.712,22.288,0,17.738,0ZM7.038,20.188a.938.938,0,0,1-1.875,0V17.6a.938.938,0,0,1,1.875,0Zm6.4,0a.938.938,0,0,1-1.875,0V15a.938.938,0,0,1,1.875,0Zm6.4,0a.938.938,0,0,1-1.875,0V12.413a.938.938,0,0,1,1.875,0Zm0-11.725a.938.938,0,0,1-1.875,0V7.25a24.415,24.415,0,0,1-11.638,6.7.692.692,0,0,1-.225.025.946.946,0,0,1-.913-.713.935.935,0,0,1,.688-1.137A22.588,22.588,0,0,0,16.813,5.738H15.25a.937.937,0,1,1,0-1.875h3.662c.05,0,.088.025.138.025a1,1,0,0,1,.188.037,1.249,1.249,0,0,1,.175.1c.038.025.075.038.113.063.013.012.012.025.025.025a1.324,1.324,0,0,1,.125.15.422.422,0,0,1,.087.138.62.62,0,0,1,.038.162.947.947,0,0,1,.038.2c0,.013.012.025.012.038V8.463Z" transform="translate(2.5 2.5)" fill="#7d7d86"/>
      <path id="Vector-2" data-name="Vector" d="M0,0H30V30H0Z" transform="translate(30 30) rotate(180)" fill="none" opacity="0"/>
    </g>
  </g>
</svg>
