<svg id="error_icon" xmlns="http://www.w3.org/2000/svg" xmlns:xlink="http://www.w3.org/1999/xlink" width="89" height="92" viewBox="0 0 89 92">
  <defs>
    <clipPath id="clip-path">
      <circle id="Ellipse_348" data-name="Ellipse 348" cx="44.5" cy="44.5" r="44.5" transform="translate(0 3)" fill="#e2e2ea"/>
    </clipPath>
    <filter id="Rectangle_2782" x="8" y="20" width="76" height="84" filterUnits="userSpaceOnUse">
      <feOffset dy="3" input="SourceAlpha"/>
      <feGaussianBlur stdDeviation="3" result="blur"/>
      <feFlood flood-opacity="0.161"/>
      <feComposite operator="in" in2="blur"/>
      <feComposite in="SourceGraphic"/>
    </filter>
  </defs>
  <circle id="Ellipse_21" data-name="Ellipse 21" cx="44.5" cy="44.5" r="44.5" transform="translate(0 3)" fill="#e2e2ea"/>
  <circle id="Ellipse_22" data-name="Ellipse 22" cx="6" cy="6" r="6" transform="translate(0 80)" fill="#e2e2ea"/>
  <circle id="Ellipse_23" data-name="Ellipse 23" cx="3" cy="3" r="3" transform="translate(0 9)" fill="#e2e2ea"/>
  <circle id="Ellipse_24" data-name="Ellipse 24" cx="4" cy="4" r="4" transform="translate(81 9)" fill="#e2e2ea"/>
  <circle id="Ellipse_25" data-name="Ellipse 25" cx="3" cy="3" r="3" transform="translate(72)" fill="#e2e2ea"/>
  <g id="Mask_Group_2" data-name="Mask Group 2" clip-path="url(#clip-path)">
    <g transform="matrix(1, 0, 0, 1, 0, 0)" filter="url(#Rectangle_2782)">
      <rect id="Rectangle_2782-2" data-name="Rectangle 2782" width="58" height="66" rx="6" transform="translate(17 26)" fill="#fff"/>
    </g>
    <rect id="Rectangle_2783" data-name="Rectangle 2783" width="43" height="4" rx="2" transform="translate(23 62)" fill="rgba(240,17,17,0.1)"/>
    <rect id="Rectangle_2784" data-name="Rectangle 2784" width="43" height="4" rx="2" transform="translate(23 71)" fill="rgba(240,17,17,0.1)"/>
    <rect id="Rectangle_2785" data-name="Rectangle 2785" width="23" height="4" rx="2" transform="translate(33 80)" fill="rgba(240,17,17,0.1)"/>
    <path id="Union_6" data-name="Union 6" d="M-4155.812-1178.793a2.523,2.523,0,0,1,0-3.568l3.441-3.441-3.441-3.441a2.522,2.522,0,0,1,0-3.568,2.522,2.522,0,0,1,3.568,0l3.441,3.441,3.441-3.441a2.523,2.523,0,0,1,3.569,0,2.524,2.524,0,0,1,0,3.568l-3.441,3.441,3.362,3.362a2.525,2.525,0,0,1,0,3.569,2.525,2.525,0,0,1-3.569,0l-3.362-3.362-3.441,3.44a2.513,2.513,0,0,1-1.783.739A2.517,2.517,0,0,1-4155.812-1178.793Z" transform="translate(4193.802 1230.802)" fill="#e88080"/>
  </g>
  <g id="successfull_icon" transform="translate(49 52)">
    <path id="Path_413" data-name="Path 413" d="M20,0A20,20,0,1,1,0,20,20,20,0,0,1,20,0Z" fill="#f01111"/>
    <path id="Union_5" data-name="Union 5" d="M-4155.62-1174.984a3.175,3.175,0,0,1,0-4.489l4.329-4.328-4.33-4.329a3.175,3.175,0,0,1,0-4.489,3.176,3.176,0,0,1,4.49,0l4.329,4.329,4.329-4.329a3.174,3.174,0,0,1,4.489,0,3.172,3.172,0,0,1,0,4.489l-4.329,4.329,4.229,4.23a3.173,3.173,0,0,1,0,4.49,3.174,3.174,0,0,1-4.489,0l-4.23-4.23-4.328,4.328a3.163,3.163,0,0,1-2.245.93A3.163,3.163,0,0,1-4155.62-1174.984Z" transform="translate(4166.802 1203.802)" fill="#fff"/>
  </g>
</svg>
