<svg xmlns="http://www.w3.org/2000/svg" width="40.999" height="41" viewBox="0 0 40.999 41">
  <path id="flash_icon" d="M-3059.5,41a20.374,20.374,0,0,1-7.98-1.611A20.433,20.433,0,0,1-3074,35a20.432,20.432,0,0,1-4.393-6.516A20.375,20.375,0,0,1-3080,20.5a20.375,20.375,0,0,1,1.611-7.98A20.432,20.432,0,0,1-3074,6a20.433,20.433,0,0,1,6.516-4.393A20.374,20.374,0,0,1-3059.5,0a20.371,20.371,0,0,1,7.979,1.611A20.434,20.434,0,0,1-3045,6a20.433,20.433,0,0,1,4.393,6.516A20.375,20.375,0,0,1-3039,20.5a20.375,20.375,0,0,1-1.611,7.98A20.433,20.433,0,0,1-3045,35a20.434,20.434,0,0,1-6.516,4.393A20.371,20.371,0,0,1-3059.5,41Zm-5.5-28.834v.911a3.6,3.6,0,0,0,.238,1.322,6.749,6.749,0,0,0,.646,1.225l.713,1.069a4.085,4.085,0,0,1,.5,1.126,5.5,5.5,0,0,1,.184,1.5V31.058a2.248,2.248,0,0,0,.547,1.655,2.194,2.194,0,0,0,1.6.542h2.672a2.194,2.194,0,0,0,1.6-.542,2.251,2.251,0,0,0,.546-1.655V19.323a5.494,5.494,0,0,1,.185-1.5,4.159,4.159,0,0,1,.5-1.126l.726-1.069a7.225,7.225,0,0,0,.634-1.225,3.6,3.6,0,0,0,.238-1.322v-.911ZM-3062.851,8a2.194,2.194,0,0,0-1.6.542,2.236,2.236,0,0,0-.546,1.644v.593h11.534v-.593a2.235,2.235,0,0,0-.546-1.644,2.194,2.194,0,0,0-1.6-.542Zm3.587,16.712a1.449,1.449,0,0,1-1.092-.432,1.635,1.635,0,0,1-.424-1.173V20.023a1.7,1.7,0,0,1,.424-1.183,1.462,1.462,0,0,1,1.129-.465,1.442,1.442,0,0,1,1.123.465,1.707,1.707,0,0,1,.419,1.183v3.084a1.613,1.613,0,0,1-.419,1.149,1.517,1.517,0,0,1-1.123.455Zm.037-5.516a.929.929,0,0,0-.669.274.9.9,0,0,0-.28.662.916.916,0,0,0,.28.668.92.92,0,0,0,.669.28.922.922,0,0,0,.663-.28.9.9,0,0,0,.285-.668.887.887,0,0,0-.285-.662A.931.931,0,0,0-3059.227,19.2Z" transform="translate(3080)" fill="#fff"/>
</svg>
