<svg xmlns="http://www.w3.org/2000/svg" width="30" height="30" viewBox="0 0 30 30">
  <g id="help_icon" transform="translate(-172 -572)">
    <g id="dollar-square" transform="translate(172 572)">
      <path id="Subtraction_9" data-name="Subtraction 9" d="M-1189.263-2728h-10.475c-4.547,0-7.262-2.715-7.262-7.262v-10.475c0-4.548,2.715-7.263,7.262-7.263h10.475c4.548,0,7.263,2.715,7.263,7.263v10.475C-1182-2730.715-1184.715-2728-1189.263-2728Zm-6.586-8.394v3.2h2.778v-3.2Zm1.53-9.057a1.7,1.7,0,0,1,1.218.432,1.589,1.589,0,0,1,.453,1.2,2.5,2.5,0,0,1-.1.745,2.3,2.3,0,0,1-.282.593,3.26,3.26,0,0,1-.412.5l-.493.493c-.258.245-.486.469-.695.685a5.709,5.709,0,0,0-.6.734,3.593,3.593,0,0,0-.433.845,3.037,3.037,0,0,0-.161,1.016v.464h2.777v-.343a2.074,2.074,0,0,1,.14-.774,3.2,3.2,0,0,1,.382-.685,5.642,5.642,0,0,1,.563-.654l.685-.684c.228-.229.414-.421.583-.6a3.889,3.889,0,0,0,.5-.674,3.433,3.433,0,0,0,.353-.855,4.355,4.355,0,0,0,.13-1.128,3.277,3.277,0,0,0-1.218-2.677,5.239,5.239,0,0,0-3.371-.986,6.057,6.057,0,0,0-2.083.322,4.331,4.331,0,0,0-1.47.876,4.1,4.1,0,0,0-.936,1.308,7.105,7.105,0,0,0-.5,1.621l2.6.322a2.83,2.83,0,0,1,.8-1.631A2.407,2.407,0,0,1-1194.319-2745.451Z" transform="translate(1209.5 2755.5)" fill="#7d7d86"/>
      <path id="Vector" d="M0,0H30V30H0Z" fill="none" opacity="0"/>
    </g>
  </g>
</svg>
