<svg id="keybad_icon" xmlns="http://www.w3.org/2000/svg" width="21.331" height="30.82" viewBox="0 0 21.331 30.82">
  <path id="Path_8962" data-name="Path 8962" d="M27.361,0H12.546a.71.71,0,0,1-.111.043,2.365,2.365,0,0,0-1.973,2.373,2.319,2.319,0,0,0,2.221,2.291A2.2,2.2,0,0,0,14.9,3.459,2.257,2.257,0,0,0,14.7.942,2.576,2.576,0,0,0,13.148,0h6.5a.731.731,0,0,1-.111.042A2.369,2.369,0,0,0,17.563,2.41a2.326,2.326,0,0,0,2.247,2.3A2.194,2.194,0,0,0,22,3.465,2.255,2.255,0,0,0,21.809.95,2.483,2.483,0,0,0,20.194,0h6.564a.664.664,0,0,1-.11.043,2.359,2.359,0,0,0-1.963,2.378,2.315,2.315,0,0,0,2.223,2.285,2.2,2.2,0,0,0,2.214-1.253A2.255,2.255,0,0,0,28.916.938,2.561,2.561,0,0,0,27.361,0m-9.8,14.676c-.118-.108-.177-.16-.233-.214a2.312,2.312,0,0,0-2.73-.331q-2.616,1.513-5.229,3.032a2.393,2.393,0,0,0-1.283,2.222q.01,1.806,0,3.612a7.412,7.412,0,0,0,1.643,4.888,7.477,7.477,0,0,0,7.579,2.777,7.512,7.512,0,0,0,3.995-2.2l7.046-7.044c.263-.262.531-.519.786-.789a.852.852,0,0,0-.192-1.4,4.126,4.126,0,0,0-.754-.37,4.671,4.671,0,0,0-5.1,1.118c-.248.238-.476.5-.713.747l-.072-.05v-.323q0-5.283,0-10.566c0-.13,0-.261-.006-.391a2.372,2.372,0,1,0-4.736.277q0,2.3,0,4.606v.4M15.189,9.481a2.365,2.365,0,1,0-2.358,2.367,2.393,2.393,0,0,0,2.358-2.367m9.5,0a2.36,2.36,0,1,0,2.351-2.366,2.385,2.385,0,0,0-2.351,2.366" transform="translate(-8.084)" fill="#fff"/>
  <path id="Path_8963" data-name="Path 8963" d="M79.956,0A2.576,2.576,0,0,1,81.51.942a2.257,2.257,0,0,1,.2,2.516,2.2,2.2,0,0,1-2.218,1.247A2.319,2.319,0,0,1,77.27,2.415,2.365,2.365,0,0,1,79.243.043.71.71,0,0,0,79.354,0Z" transform="translate(-74.893)" fill="#fff"/>
  <path id="Path_8964" data-name="Path 8964" d="M156.235,0a2.482,2.482,0,0,1,1.615.95,2.255,2.255,0,0,1,.192,2.515,2.194,2.194,0,0,1-2.191,1.242,2.326,2.326,0,0,1-2.247-2.3A2.369,2.369,0,0,1,155.581.042.726.726,0,0,0,155.693,0Z" transform="translate(-144.125)" fill="#fff"/>
  <path id="Path_8965" data-name="Path 8965" d="M232.846,0A2.562,2.562,0,0,1,234.4.938a2.255,2.255,0,0,1,.207,2.516,2.2,2.2,0,0,1-2.214,1.253,2.315,2.315,0,0,1-2.223-2.285A2.359,2.359,0,0,1,232.133.043a.675.675,0,0,0,.11-.043Z" transform="translate(-213.569)" fill="#fff"/>
  <path id="Path_8966" data-name="Path 8966" d="M61.216,84.129v-.4q0-2.3,0-4.606a2.372,2.372,0,1,1,4.736-.277c.009.13.006.261.006.391q0,5.283,0,10.566v.323l.072.05c.237-.249.464-.509.713-.747a4.671,4.671,0,0,1,5.1-1.118,4.118,4.118,0,0,1,.754.37.852.852,0,0,1,.192,1.4c-.254.27-.523.527-.786.79l-7.046,7.045a7.68,7.68,0,0,1-11.574-.576,7.412,7.412,0,0,1-1.643-4.888q.009-1.806,0-3.612a2.393,2.393,0,0,1,1.283-2.222q2.615-1.515,5.229-3.032a2.312,2.312,0,0,1,2.73.331c.057.054.115.106.234.214" transform="translate(-51.74 -69.453)" fill="#fff"/>
  <path id="Path_8967" data-name="Path 8967" d="M82,78.85a2.365,2.365,0,1,1-2.359-2.366A2.395,2.395,0,0,1,82,78.85" transform="translate(-74.894 -69.369)" fill="#fff"/>
  <path id="Path_8968" data-name="Path 8968" d="M230.181,78.865a2.36,2.36,0,1,1,2.352,2.365,2.384,2.384,0,0,1-2.352-2.365" transform="translate(-213.581 -69.382)" fill="#fff"/>
</svg>
