<svg xmlns="http://www.w3.org/2000/svg" width="40" height="40" viewBox="0 0 40 40">
  <g id="link_icon" transform="translate(-620 -316)">
    <g id="link-square" transform="translate(620 316)">
      <path id="Vector" d="M0,0H40V40H0Z" fill="none" opacity="0"/>
      <path id="Vector-2" data-name="Vector" d="M23.65,0H9.683C3.617,0,0,3.617,0,9.683v13.95c0,6.083,3.617,9.7,9.683,9.7h13.95c6.067,0,9.683-3.617,9.683-9.683V9.683C33.333,3.617,29.717,0,23.65,0ZM10.3,24.617h-.117a6.74,6.74,0,0,1-4.267-2.1,7.439,7.439,0,0,1,0-10.15l3.65-3.833a6.732,6.732,0,0,1,9.833,0,7.439,7.439,0,0,1,0,10.15L17.583,20.6a1.25,1.25,0,1,1-1.817-1.717l1.817-1.917a4.9,4.9,0,0,0,0-6.7,4.366,4.366,0,0,0-6.217,0L7.717,14.1a4.9,4.9,0,0,0,0,6.7,4.274,4.274,0,0,0,2.7,1.333A1.251,1.251,0,0,1,11.533,23.5,1.233,1.233,0,0,1,10.3,24.617Zm17.117-3.633-3.65,3.833a6.732,6.732,0,0,1-9.833,0,7.439,7.439,0,0,1,0-10.15L15.75,12.75a1.25,1.25,0,0,1,1.817,1.717L15.75,16.383a4.9,4.9,0,0,0,0,6.7,4.351,4.351,0,0,0,6.217,0l3.65-3.833a4.9,4.9,0,0,0,0-6.7,4.274,4.274,0,0,0-2.7-1.333A1.251,1.251,0,0,1,21.8,9.85a1.231,1.231,0,0,1,1.367-1.117,6.823,6.823,0,0,1,4.267,2.1A7.456,7.456,0,0,1,27.417,20.983Z" transform="translate(3.333 3.333)" fill="#7f22ff"/>
    </g>
  </g>
</svg>
