<svg xmlns="http://www.w3.org/2000/svg" width="24.093" height="22.782" viewBox="0 0 24.093 22.782">
  <path id="logout_icon" d="M159.89-2021.594c-2.093-.953-4.149-2-6.291-2.822a2.153,2.153,0,0,1-1.506-2.416c.039-4.079.025-8.158.007-12.238a1.925,1.925,0,0,1,1.359-2.1c2.169-.859,4.261-1.916,6.386-2.887a.942.942,0,0,1,1.489.68,3.621,3.621,0,0,1,.125,1q.012,4.788.005,9.578h0c0,3.211.005,6.422-.009,9.634a2.948,2.948,0,0,1-.2,1.042c-.185.469-.425.685-.767.685A1.487,1.487,0,0,1,159.89-2021.594Zm-1.376-13.151a1.4,1.4,0,0,0-1.343,1.393,1.38,1.38,0,0,0,1.4,1.328,1.329,1.329,0,0,0,1.323-1.385,1.35,1.35,0,0,0-1.355-1.337Zm4.967,11.359v-1.8h4.877v-4.269h1.612c0,1.447.014,2.894-.012,4.341a2.027,2.027,0,0,1-.252.859,1.443,1.443,0,0,1-1.3.865c-.661,0-1.322.005-1.987.005Zm7.677-6.923h-6.115v-5.685h6.095v-2.555l5.048,5.3-5.028,5.26Zm-2.766-6.861v-3.3h-4.918v-1.813h1.018c1.209,0,2.418-.009,3.627,0a1.724,1.724,0,0,1,1.846,1.781c.016.32.006.643.006.964,0,.773,0,1.547,0,2.365Z" transform="translate(-152.093 2044.217)" fill="#7f22ff"/>
</svg>
