<svg xmlns="http://www.w3.org/2000/svg" width="25" height="25" viewBox="0 0 25 25">
  <g id="notifications_icon" transform="translate(-896 -102)">
    <rect id="Rectangle_1787" data-name="Rectangle 1787" width="25" height="25" transform="translate(896 102)" fill="none"/>
    <path id="ring_icon" d="M-307.456-35.4a2.98,2.98,0,0,1-.755-1.2c.14.022.281.032.432.054.247.032.507.065.765.086.615.053,1.24.086,1.865.086s1.229-.032,1.833-.086c.226-.022.453-.032.669-.065l.527-.065a3.25,3.25,0,0,1-3.051,2.146A3.2,3.2,0,0,1-307.456-35.4Zm-4.6-3.331a2.715,2.715,0,0,1-1.779-1.552,2.454,2.454,0,0,1,.275-2.254l1.16-1.8a3.725,3.725,0,0,0,.459-1.585v-2.728a6.367,6.367,0,0,1,3.789-5.713A3.441,3.441,0,0,1-305.183-56a3.4,3.4,0,0,1,2.963,1.606,6.355,6.355,0,0,1,3.869,5.746v2.728a3.815,3.815,0,0,0,.459,1.6l1.148,1.789a2.425,2.425,0,0,1,.229,2.254,2.684,2.684,0,0,1-1.722,1.563,23.068,23.068,0,0,1-6.913,1.046A22.739,22.739,0,0,1-312.061-38.729Z" transform="translate(1211.834 159.719)" fill="#7f22ff"/>
    <g id="spot_icon" transform="translate(-1.834)">
      <circle id="Ellipse_10" data-name="Ellipse 10" cx="5.5" cy="5.5" r="5.5" transform="translate(910 102)" fill="#f2f2f5"/>
      <circle id="Ellipse_11" data-name="Ellipse 11" cx="4.5" cy="4.5" r="4.5" transform="translate(911 103)" fill="#e0001a"/>
    </g>
  </g>
</svg>
