<svg xmlns="http://www.w3.org/2000/svg" width="30" height="30" viewBox="0 0 30 30">
  <g id="payment_icon" transform="translate(-172 -572)">
    <g id="dollar-square" transform="translate(172 572)">
      <path id="Vector" d="M2.287,0V3.575L1.025,3.138C.387,2.913,0,2.7,0,1.612A1.552,1.552,0,0,1,1.475,0Z" transform="translate(11.775 10.1)" fill="#7d7d86"/>
      <path id="Vector-2" data-name="Vector" d="M2.287,1.962A1.552,1.552,0,0,1,.812,3.575H0V0L1.263.437C1.9.662,2.287.875,2.287,1.962Z" transform="translate(15.938 16.325)" fill="#7d7d86"/>
      <path id="Vector-3" data-name="Vector" d="M17.738,0H7.262C2.712,0,0,2.712,0,7.262V17.738C0,22.288,2.712,25,7.262,25H17.738C22.288,25,25,22.288,25,17.738V7.262C25,2.712,22.288,0,17.738,0ZM15.325,12.5A3.1,3.1,0,0,1,17.6,15.788a3.422,3.422,0,0,1-3.35,3.487h-.812V20a.938.938,0,0,1-1.875,0v-.725h-.45A3.8,3.8,0,0,1,7.4,15.413a.937.937,0,1,1,1.875,0A1.917,1.917,0,0,0,11.113,17.4h.45V13.162L9.675,12.5A3.1,3.1,0,0,1,7.4,9.212a3.422,3.422,0,0,1,3.35-3.487h.813V5a.938.938,0,0,1,1.875,0v.725h.45A3.8,3.8,0,0,1,17.6,9.587a.937.937,0,0,1-1.875,0A1.917,1.917,0,0,0,13.887,7.6h-.45v4.238Z" transform="translate(2.5 2.5)" fill="#7d7d86"/>
      <path id="Vector-4" data-name="Vector" d="M0,0H30V30H0Z" fill="none" opacity="0"/>
    </g>
  </g>
</svg>
