<svg xmlns="http://www.w3.org/2000/svg" width="40" height="40" viewBox="0 0 40 40">
  <g id="scan_icon" transform="translate(-620 -316)">
    <g id="link-square" transform="translate(620 316)">
      <path id="Vector" d="M0,0H40V40H0Z" fill="none" opacity="0"/>
      <path id="Vector-2" data-name="Vector" d="M23.65,0H9.683C3.617,0,0,3.617,0,9.683v13.95c0,6.083,3.617,9.7,9.683,9.7h13.95c6.067,0,9.683-3.617,9.683-9.683V9.683C33.333,3.617,29.717,0,23.65,0Z" transform="translate(3.333 3.333)" fill="#7f22ff"/>
      <g id="vuesax_bold_scanner" data-name="vuesax/bold/scanner" transform="translate(-676.428 -244.428)">
        <g id="scanner" transform="translate(684 252)">
          <g id="Vector-3" data-name="Vector" fill="none" opacity="0">
            <path d="M0,0H24.857V24.857H0Z" stroke="none"/>
            <path d="M 1.499996185302734 1.499996185302734 L 1.499996185302734 23.35693740844727 L 23.35693740844727 23.35693740844727 L 23.35693740844727 1.499996185302734 L 1.499996185302734 1.499996185302734 M -3.814697265625e-06 -3.814697265625e-06 L 24.85693740844727 -3.814697265625e-06 L 24.85693740844727 24.85693740844727 L -3.814697265625e-06 24.85693740844727 L -3.814697265625e-06 -3.814697265625e-06 Z" stroke="none" fill="#fff"/>
          </g>
          <g id="Vector-4" data-name="Vector" transform="translate(1.295 1.295)" fill="#fff">
            <path d="M 21.49089431762695 8.053498268127441 C 21.48038482666016 8.053498268127441 21.46411514282227 8.037228584289551 21.46411514282227 8.026719093322754 L 21.46411514282227 5.955308437347412 C 21.46411514282227 2.873888731002808 19.39378547668457 0.8035586476325989 16.31236457824707 0.8035586476325989 L 5.955304622650146 0.8035586476325989 C 2.873884916305542 0.8035586476325989 0.8035548329353333 2.873888731002808 0.8035548329353333 5.955308437347412 L 0.8035548329353333 8.026719093322754 C 0.8035548329353333 8.037228584289551 0.7872848510742188 8.053498268127441 0.7767748236656189 8.053498268127441 C 0.7662648558616638 8.053498268127441 0.7500048279762268 8.037228584289551 0.7500048279762268 8.026719093322754 L 0.7500048279762268 5.955308437347412 C 0.7500048279762268 4.410428524017334 1.241694808006287 3.102148771286011 2.171924829483032 2.171918630599976 C 3.102154731750488 1.24168860912323 4.410424709320068 0.7499986290931702 5.955304622650146 0.7499986290931702 L 16.31236457824707 0.7499986290931702 C 17.85724449157715 0.7499986290931702 19.16552543640137 1.24168860912323 20.09575462341309 2.171918630599976 C 21.02598571777344 3.102148771286011 21.51767539978027 4.410428524017334 21.51767539978027 5.955308437347412 L 21.51767539978027 8.026719093322754 C 21.51767539978027 8.037228584289551 21.50140571594238 8.053498268127441 21.49089431762695 8.053498268127441 Z" stroke="none"/>
            <path d="M 21.49089431762695 8.803498268127441 C 21.06625556945801 8.803498268127441 20.71411514282227 8.451358795166016 20.71411514282227 8.026719093322754 L 20.71411514282227 5.955308437347412 C 20.71411514282227 3.283188581466675 18.9844856262207 1.553558707237244 16.31236457824707 1.553558707237244 L 5.955304622650146 1.553558707237244 C 3.283184766769409 1.553558707237244 1.553554892539978 3.283188581466675 1.553554892539978 5.955308437347412 L 1.553554892539978 8.026719093322754 C 1.553554892539978 8.451358795166016 1.201414823532104 8.803498268127441 0.7767748236656189 8.803498268127441 C 0.3521448373794556 8.803498268127441 4.838866971113021e-06 8.451358795166016 4.838866971113021e-06 8.026719093322754 L 4.838866971113021e-06 5.955308437347412 C 4.838866971113021e-06 2.392478704452515 2.392484903335571 -1.342773430224042e-06 5.955304622650146 -1.342773430224042e-06 L 16.31236457824707 -1.342773430224042e-06 C 19.87519454956055 -1.342773430224042e-06 22.26767539978027 2.392478704452515 22.26767539978027 5.955308437347412 L 22.26767539978027 8.026719093322754 C 22.26767539978027 8.451358795166016 21.91553497314453 8.803498268127441 21.49089431762695 8.803498268127441 Z" stroke="none" fill="#fff"/>
          </g>
          <g id="Vector-5" data-name="Vector" transform="translate(1.295 14.759)" fill="#fff">
            <path d="M 16.31236457824707 8.053498268127441 L 5.955304622650146 8.053498268127441 C 4.410424709320068 8.053498268127441 3.102154731750488 7.561808586120605 2.171924829483032 6.63157844543457 C 1.241694808006287 5.701348781585693 0.7500048279762268 4.393068790435791 0.7500048279762268 2.848188638687134 L 0.7500048279762268 0.7767786383628845 C 0.7500048279762268 0.7662686705589294 0.7662648558616638 0.7499986290931702 0.7767748236656189 0.7499986290931702 C 0.7872848510742188 0.7499986290931702 0.8035548329353333 0.7662686705589294 0.8035548329353333 0.7767786383628845 L 0.8035548329353333 2.848188638687134 C 0.8035548329353333 5.929608821868896 2.873884916305542 7.999938488006592 5.955304622650146 7.999938488006592 L 16.31236457824707 7.999938488006592 C 19.39378547668457 7.999938488006592 21.46411514282227 5.929608821868896 21.46411514282227 2.848188638687134 L 21.46411514282227 0.7767786383628845 C 21.46411514282227 0.7662686705589294 21.48038482666016 0.7499986290931702 21.49089431762695 0.7499986290931702 C 21.50140571594238 0.7499986290931702 21.51767539978027 0.7662686705589294 21.51767539978027 0.7767786383628845 L 21.51767539978027 2.848188638687134 C 21.51767539978027 4.393068790435791 21.02598571777344 5.701348781585693 20.09575462341309 6.63157844543457 C 19.16552543640137 7.561808586120605 17.85724449157715 8.053498268127441 16.31236457824707 8.053498268127441 Z" stroke="none"/>
            <path d="M 16.31236457824707 8.803498268127441 L 5.955304622650146 8.803498268127441 C 2.392484903335571 8.803498268127441 4.838866971113021e-06 6.411018848419189 4.838866971113021e-06 2.848188638687134 L 4.838866971113021e-06 0.7767786383628845 C 4.838866971113021e-06 0.3521386682987213 0.3521448373794556 -1.342773430224042e-06 0.7767748236656189 -1.342773430224042e-06 C 1.201414823532104 -1.342773430224042e-06 1.553554892539978 0.3521386682987213 1.553554892539978 0.7767786383628845 L 1.553554892539978 2.848188638687134 C 1.553554892539978 5.520308494567871 3.283184766769409 7.249938488006592 5.955304622650146 7.249938488006592 L 16.31236457824707 7.249938488006592 C 18.9844856262207 7.249938488006592 20.71411514282227 5.520308494567871 20.71411514282227 2.848188638687134 L 20.71411514282227 0.7767786383628845 C 20.71411514282227 0.3521386682987213 21.06625556945801 -1.342773430224042e-06 21.49089431762695 -1.342773430224042e-06 C 21.91553497314453 -1.342773430224042e-06 22.26767539978027 0.3521386682987213 22.26767539978027 0.7767786383628845 L 22.26767539978027 2.848188638687134 C 22.26767539978027 6.411018848419189 19.87519454956055 8.803498268127441 16.31236457824707 8.803498268127441 Z" stroke="none" fill="#fff"/>
          </g>
          <g id="Vector-6" data-name="Vector" transform="translate(1.295 11.652)" fill="#fff">
            <path d="M 21.49089431762695 0.8035591840744019 L 0.7767748236656189 0.8035591840744019 C 0.7662648558616638 0.8035591840744019 0.7500048279762268 0.7872892022132874 0.7500048279762268 0.7767791748046875 C 0.7500048279762268 0.7662691473960876 0.7662648558616638 0.7499991655349731 0.7767748236656189 0.7499991655349731 L 21.49089431762695 0.7499991655349731 C 21.50140571594238 0.7499991655349731 21.51767539978027 0.7662691473960876 21.51767539978027 0.7767791748046875 C 21.51767539978027 0.7872892022132874 21.50140571594238 0.8035591840744019 21.49089431762695 0.8035591840744019 Z" stroke="none"/>
            <path d="M 21.49089431762695 1.553559184074402 L 0.7767748236656189 1.553559184074402 C 0.3521448373794556 1.553559184074402 4.838866971113021e-06 1.201419234275818 4.838866971113021e-06 0.7767791748046875 C 4.838866971113021e-06 0.3521391749382019 0.3521448373794556 -8.251952863247425e-07 0.7767748236656189 -8.251952863247425e-07 L 21.49089431762695 -8.251952863247425e-07 C 21.91553497314453 -8.251952863247425e-07 22.26767539978027 0.3521391749382019 22.26767539978027 0.7767791748046875 C 22.26767539978027 1.201419234275818 21.91553497314453 1.553559184074402 21.49089431762695 1.553559184074402 Z" stroke="none" fill="#fff"/>
          </g>
          <g id="Vector-7" data-name="Vector" transform="translate(7.25 5.179)" fill="#fff">
            <path d="M 9.607057571411133 3.392821073532104 L 0.7499978542327881 3.392821073532104 L 0.7499978542327881 1.553561091423035 C 0.7499978542327881 1.110481142997742 1.110477805137634 0.7500011324882507 1.553557872772217 0.7500011324882507 L 8.803498268127441 0.7500011324882507 C 9.246578216552734 0.7500011324882507 9.607057571411133 1.110481142997742 9.607057571411133 1.553561091423035 L 9.607057571411133 3.392821073532104 Z" stroke="none"/>
            <path d="M 8.857057571411133 2.642821073532104 L 8.857057571411133 1.553561091423035 C 8.857057571411133 1.522531151771545 8.834527969360352 1.500001192092896 8.803498268127441 1.500001192092896 L 1.553557872772217 1.500001192092896 C 1.522527813911438 1.500001192092896 1.499997854232788 1.522531151771545 1.499997854232788 1.553561091423035 L 1.499997854232788 2.642821073532104 L 8.857057571411133 2.642821073532104 M 9.839207649230957 4.142821311950684 L 0.5178578495979309 4.142821311950684 C 0.2278578281402588 4.142821311950684 -2.167968659705366e-06 3.914971113204956 -2.167968659705366e-06 3.624971151351929 L -2.167968659705366e-06 1.553561091423035 C -2.167968659705366e-06 0.6939211487770081 0.6939278244972229 1.132812485593604e-06 1.553557872772217 1.132812485593604e-06 L 8.803498268127441 1.132812485593604e-06 C 9.663127899169922 1.132812485593604e-06 10.35705757141113 0.6939211487770081 10.35705757141113 1.553561091423035 L 10.35705757141113 3.624971151351929 C 10.35705757141113 3.914971113204956 10.12919807434082 4.142821311950684 9.839207649230957 4.142821311950684 Z" stroke="none" fill="#fff"/>
          </g>
          <g id="Vector-8" data-name="Vector" transform="translate(7.25 15.536)" fill="#fff">
            <path d="M 8.803498268127441 3.392821073532104 L 1.553557872772217 3.392821073532104 C 1.110477805137634 3.392821073532104 0.7499978542327881 3.032341241836548 0.7499978542327881 2.589261054992676 L 0.7499978542327881 0.7500011324882507 L 9.607057571411133 0.7500011324882507 L 9.607057571411133 2.589261054992676 C 9.607057571411133 3.032341241836548 9.246578216552734 3.392821073532104 8.803498268127441 3.392821073532104 Z" stroke="none"/>
            <path d="M 1.499998092651367 1.500001192092896 L 1.499998092651367 2.589261054992676 C 1.499998092651367 2.620291233062744 1.522527694702148 2.642821073532104 1.553557395935059 2.642821073532104 L 8.803497314453125 2.642821073532104 C 8.827107429504395 2.642821073532104 8.857057571411133 2.617601156234741 8.857057571411133 2.589261054992676 L 8.857057571411133 1.500001192092896 L 1.499998092651367 1.500001192092896 M 0.517848014831543 9.5367431640625e-07 L 9.839198112487793 9.5367431640625e-07 C 10.12919807434082 9.5367431640625e-07 10.35705757141113 0.2278511524200439 10.35705757141113 0.5178511142730713 L 10.35705757141113 2.589261054992676 C 10.35705757141113 3.448901176452637 9.652777671813965 4.142821311950684 8.803497314453125 4.142821311950684 L 1.553557395935059 4.142821311950684 C 0.6939277648925781 4.142821311950684 -1.9073486328125e-06 3.448901176452637 -1.9073486328125e-06 2.589261054992676 L -1.9073486328125e-06 0.5178511142730713 C -1.9073486328125e-06 0.2278511524200439 0.2278575897216797 9.5367431640625e-07 0.517848014831543 9.5367431640625e-07 Z" stroke="none" fill="#fff"/>
          </g>
        </g>
      </g>
    </g>
  </g>
</svg>
