<svg xmlns="http://www.w3.org/2000/svg" xmlns:xlink="http://www.w3.org/1999/xlink" width="40" height="40" viewBox="0 0 40 40">
  <defs>
    <clipPath id="clip-path">
      <path id="Rectangle_2794" data-name="Rectangle 2794" d="M5.423,0H25.166a5.423,5.423,0,0,1,5.423,5.423v19.74a5.422,5.422,0,0,1-5.422,5.422H5.423A5.423,5.423,0,0,1,0,25.162V5.423A5.423,5.423,0,0,1,5.423,0Z" transform="translate(0 0.004)" fill="#7f22ff"/>
    </clipPath>
  </defs>
  <g id="static_qr_icon" transform="translate(-108 -380)">
    <g id="wallet-money" transform="translate(108 380)">
      <path id="Vector" d="M0,0H40V40H0Z" transform="translate(40 40) rotate(180)" fill="none" opacity="0"/>
      <g id="Group_7387" data-name="Group 7387" transform="translate(4.706 4.704)">
        <g id="Group_7386" data-name="Group 7386" clip-path="url(#clip-path)">
          <path id="Path_9020" data-name="Path 9020" d="M30.588,6.018V9.687a2.2,2.2,0,0,1-2.057,2.335,2.372,2.372,0,0,1-.253,0q-3.7.008-7.407,0a2.2,2.2,0,0,1-2.3-2.095c0-.072,0-.145,0-.218q-.006-3.7,0-7.407A2.192,2.192,0,0,1,20.648,0a2.265,2.265,0,0,1,.233,0h7.407a2.187,2.187,0,0,1,2.3,2.069,1.921,1.921,0,0,1,0,.24v3.7" fill="#7f22ff"/>
          <path id="Path_9021" data-name="Path 9021" d="M5.98,0H9.721a2.188,2.188,0,0,1,2.3,2.071c0,.068,0,.136,0,.2q.01,3.736,0,7.475a2.188,2.188,0,0,1-2.1,2.27c-.057,0-.115,0-.173,0q-3.736.012-7.475,0A2.185,2.185,0,0,1,0,9.922a1.742,1.742,0,0,1,0-.177Q0,6,0,2.27A2.182,2.182,0,0,1,2.1,0c.061,0,.121,0,.182,0Z" fill="#7f22ff"/>
          <path id="Path_9022" data-name="Path 9022" d="M0,24.552V20.883a2.192,2.192,0,0,1,2.065-2.312,2.047,2.047,0,0,1,.235,0q3.7-.009,7.407,0a2.2,2.2,0,0,1,2.311,2.083c0,.072,0,.145,0,.217q.008,3.7,0,7.407a2.193,2.193,0,0,1-2.069,2.309,2.225,2.225,0,0,1-.231,0H2.316A2.188,2.188,0,0,1,.007,28.527a2.153,2.153,0,0,1,0-.241V24.549" fill="#7f22ff"/>
          <path id="Path_9023" data-name="Path 9023" d="M14.206,14.207V1.314a2.075,2.075,0,0,1,.031-.472,1.087,1.087,0,0,1,2.144.218V15.092c0,.884-.4,1.295-1.279,1.3H1.2A1.088,1.088,0,0,1,.133,14.8a1.043,1.043,0,0,1,.96-.592c.521-.007,1.042,0,1.563,0Z" fill="#7f22ff"/>
          <path id="Path_9024" data-name="Path 9024" d="M18.567,19.66V15.352a1.084,1.084,0,0,1,.7-1.067.991.991,0,0,1,1.174.27,1.391,1.391,0,0,1,.3.762c.025,1.8.019,3.6.011,5.4a1.058,1.058,0,0,1-.989,1.123,1.016,1.016,0,0,1-.146,0c-.94.009-1.881,0-2.821,0h-.407v6.514a1.081,1.081,0,0,1-1.43,1.078,1.055,1.055,0,0,1-.743-.994q-.01-3.857,0-7.714a1.086,1.086,0,0,1,1.1-1.07c.022,0,.045,0,.067,0,.929-.008,1.858,0,2.787,0h.4" fill="#7f22ff"/>
          <path id="Path_9025" data-name="Path 9025" d="M25.16,19.66h2.459c.623,0,1.246-.011,1.868,0a1.1,1.1,0,0,1,1.084.9,1.066,1.066,0,0,1-.584,1.156,1.494,1.494,0,0,1-.59.118q-2.632.014-5.265,0a1.078,1.078,0,0,1-1.189-1.177q-.012-2.632,0-5.265a1.1,1.1,0,0,1,.995-1.2,1.114,1.114,0,0,1,.216,0h5.231a1.094,1.094,0,0,1,.222,2.177,1.123,1.123,0,0,1-.209,0H25.16Z" fill="#7f22ff"/>
          <path id="Path_9026" data-name="Path 9026" d="M21.846,26.223c-.745,0-1.435.01-2.123,0a1.087,1.087,0,0,1-1.144-1.028,1.072,1.072,0,0,1,.051-.394,1.038,1.038,0,0,1,.916-.749,3.1,3.1,0,0,1,.373-.014h8.219c.974,0,1.361.386,1.361,1.354,0,1,0,1.993,0,2.989a1.076,1.076,0,0,1-.786,1.067,1.023,1.023,0,0,1-1.189-.422,1.437,1.437,0,0,1-.2-.666c-.027-.587-.008-1.177-.01-1.766,0-.11-.009-.22-.015-.348H24.054c-.006.119-.018.237-.018.356,0,.577.008,1.155,0,1.732a1.1,1.1,0,0,1-2.185.148,1.218,1.218,0,0,1,0-.148c-.011-.688,0-1.377,0-2.112" fill="#7f22ff"/>
        </g>
      </g>
    </g>
  </g>
</svg>
