<svg id="successfully_icon" xmlns="http://www.w3.org/2000/svg" xmlns:xlink="http://www.w3.org/1999/xlink" width="89" height="92" viewBox="0 0 89 92">
  <defs>
    <clipPath id="clip-path">
      <circle id="Ellipse_348" data-name="Ellipse 348" cx="44.5" cy="44.5" r="44.5" transform="translate(0 3)" fill="#e2e2ea"/>
    </clipPath>
    <filter id="Rectangle_2782" x="8" y="20" width="76" height="84" filterUnits="userSpaceOnUse">
      <feOffset dy="3" input="SourceAlpha"/>
      <feGaussianBlur stdDeviation="3" result="blur"/>
      <feFlood flood-opacity="0.161"/>
      <feComposite operator="in" in2="blur"/>
      <feComposite in="SourceGraphic"/>
    </filter>
  </defs>
  <circle id="Ellipse_21" data-name="Ellipse 21" cx="44.5" cy="44.5" r="44.5" transform="translate(0 3)" fill="#e2e2ea"/>
  <circle id="Ellipse_22" data-name="Ellipse 22" cx="6" cy="6" r="6" transform="translate(0 80)" fill="#e2e2ea"/>
  <circle id="Ellipse_23" data-name="Ellipse 23" cx="3" cy="3" r="3" transform="translate(0 9)" fill="#e2e2ea"/>
  <circle id="Ellipse_24" data-name="Ellipse 24" cx="4" cy="4" r="4" transform="translate(81 9)" fill="#e2e2ea"/>
  <circle id="Ellipse_25" data-name="Ellipse 25" cx="3" cy="3" r="3" transform="translate(72)" fill="#e2e2ea"/>
  <g id="Mask_Group_2" data-name="Mask Group 2" clip-path="url(#clip-path)">
    <g transform="matrix(1, 0, 0, 1, 0, 0)" filter="url(#Rectangle_2782)">
      <rect id="Rectangle_2782-2" data-name="Rectangle 2782" width="58" height="66" rx="6" transform="translate(17 26)" fill="#fff"/>
    </g>
    <path id="Path_8976" data-name="Path 8976" d="M18.973,29.621a3.067,3.067,0,0,0,2.382-1.026q4.958-5.274,9.883-10.574a3.3,3.3,0,0,0,.945-1.944,2.92,2.92,0,0,0-1.653-2.895,3.059,3.059,0,0,0-3.554.767q-3.524,3.775-7.026,7.566c-.734.794-.734.8-1.458.027-.772-.821-1.545-1.647-2.317-2.468a2.965,2.965,0,0,0-4.229-.335,3.01,3.01,0,0,0-.238,4.385c1.75,1.917,3.554,3.786,5.347,5.66a2.5,2.5,0,0,0,1.917.837" transform="translate(24.465 22.738)" fill="#a7edbd"/>
    <rect id="Rectangle_2783" data-name="Rectangle 2783" width="43" height="4" rx="2" transform="translate(23 62)" fill="#e7f5eb"/>
    <rect id="Rectangle_2784" data-name="Rectangle 2784" width="43" height="4" rx="2" transform="translate(23 71)" fill="#e7f5eb"/>
    <rect id="Rectangle_2785" data-name="Rectangle 2785" width="23" height="4" rx="2" transform="translate(23 80)" fill="#e7f5eb"/>
  </g>
  <g id="successfull_icon" transform="translate(49 52)">
    <path id="Path_413" data-name="Path 413" d="M20,0A20,20,0,1,1,0,20,20,20,0,0,1,20,0Z" fill="#0cce48"/>
    <path id="Path_8828" data-name="Path 8828" d="M18.973,29.621a3.067,3.067,0,0,0,2.382-1.026q4.958-5.274,9.883-10.574a3.3,3.3,0,0,0,.945-1.944,2.92,2.92,0,0,0-1.653-2.895,3.059,3.059,0,0,0-3.554.767q-3.524,3.775-7.026,7.566c-.734.794-.734.8-1.458.027-.772-.821-1.545-1.647-2.317-2.468a2.965,2.965,0,0,0-4.229-.335,3.01,3.01,0,0,0-.238,4.385c1.75,1.917,3.554,3.786,5.347,5.66a2.5,2.5,0,0,0,1.917.837" transform="translate(-1.535 -1.263)" fill="#fff"/>
  </g>
</svg>
