<svg id="support_icon" xmlns="http://www.w3.org/2000/svg" xmlns:xlink="http://www.w3.org/1999/xlink" width="89" height="92" viewBox="0 0 89 92">
  <defs>
    <filter id="shadow" x="7.142" y="6" width="74.717" height="83.958" filterUnits="userSpaceOnUse">
      <feOffset dy="3" input="SourceAlpha"/>
      <feGaussianBlur stdDeviation="3" result="blur"/>
      <feFlood flood-opacity="0.102"/>
      <feComposite operator="in" in2="blur"/>
      <feComposite in="SourceGraphic"/>
    </filter>
  </defs>
  <circle id="Ellipse_21" data-name="Ellipse 21" cx="44.5" cy="44.5" r="44.5" transform="translate(0 3)" fill="#e2e2ea"/>
  <circle id="Ellipse_22" data-name="Ellipse 22" cx="6" cy="6" r="6" transform="translate(0 80)" fill="#e2e2ea"/>
  <circle id="Ellipse_23" data-name="Ellipse 23" cx="3" cy="3" r="3" transform="translate(0 9)" fill="#e2e2ea"/>
  <circle id="Ellipse_24" data-name="Ellipse 24" cx="4" cy="4" r="4" transform="translate(81 9)" fill="#e2e2ea"/>
  <circle id="Ellipse_25" data-name="Ellipse 25" cx="3" cy="3" r="3" transform="translate(72)" fill="#e2e2ea"/>
  <g id="Group_7379" data-name="Group 7379" transform="translate(-0.86 -1)">
    <g transform="matrix(1, 0, 0, 1, 0.86, 1)" filter="url(#shadow)">
      <path id="shadow-2" data-name="shadow" d="M5.032,65.958a1.805,1.805,0,0,0-.292-.115A5.672,5.672,0,0,1,.3,58.455a44.839,44.839,0,0,1,2.434-5.938,10.226,10.226,0,0,1,6.6-5.543,18.211,18.211,0,0,1,4.979-.471c1.021.006,2.041,0,3.226,0-.343-.3-.58-.474-.779-.685-.811-.855-1.654-1.685-2.395-2.6a1.387,1.387,0,0,0-1.223-.594,9.654,9.654,0,0,1-9.911-9.936c0-2.211.027-4.423,0-6.633A25.651,25.651,0,0,1,5.958,13.88a25.01,25.01,0,0,1,8.569-9.672A24.787,24.787,0,0,1,38.464,2.167,24.955,24.955,0,0,1,48.9,10.795,23.616,23.616,0,0,1,53.327,22.91c.226,3.4.176,6.822.136,10.233a9.493,9.493,0,0,1-8.8,9.412,3.552,3.552,0,0,0-3.051,1.562A23.158,23.158,0,0,1,39.441,46.5h.511c.488,0,.977,0,1.465,0,1.079,0,2.158-.007,3.235.041a10.449,10.449,0,0,1,8.989,5.349,29.809,29.809,0,0,1,2.826,6.743,5.4,5.4,0,0,1-2.02,6.056,16.075,16.075,0,0,1-2.77,1.265ZM28.355,60.8c-2.6-3.509-5.121-6.915-7.7-10.394h0C23.233,53.889,25.755,57.295,28.355,60.8Zm9.3-18.171A13.1,13.1,0,0,1,26.472,46.37,13.091,13.091,0,0,0,37.654,42.633Zm-7.02-.852a1.981,1.981,0,0,0,1.767.853,1.982,1.982,0,0,1-1.767-.853,1.888,1.888,0,0,1-.351-1.079A1.888,1.888,0,0,0,30.634,41.781Zm1.776.853Zm4.572,0h0Zm-6.1-3.314a1.917,1.917,0,0,1,1.412-.542A1.915,1.915,0,0,0,30.885,39.319Zm-16.08-6.833q0-.705.055-1.442h0Q14.8,31.781,14.806,32.486Zm27.043-1.442c.029.469.045.935.045,1.4,0-.461-.015-.926-.045-1.4h0ZM28.113,27.4A9.628,9.628,0,0,1,20.3,31.047,9.626,9.626,0,0,0,28.113,27.4Zm8.179,3.643Zm1.167,0h0Zm1.138,0h0Zm-21.944,0q.868,0,1.737,0h0Q17.521,31.039,16.653,31.042Zm14.23-1.579Zm-2.7-2.19c.017-.04.027-.071.031-.079l.044.038-.044-.038C28.214,27.2,28.2,27.233,28.188,27.273Zm21.354-3.782ZM7.276,23.47q.029-.283.063-.564Q7.3,23.187,7.276,23.47Zm.127-.007,3.727-.213Zm3.727-.213a17.581,17.581,0,0,1,16.416-15.5A17.578,17.578,0,0,0,11.129,23.25Zm16.416-15.5c.255-.01.509-.015.761-.015h0Q27.927,7.736,27.545,7.751Zm11.919-.643q.214.13.423.264-.209-.133-.423-.264l-.144-.087Zm-22.445.129Zm.248-.152.032-.019Zm.224-.134.118-.07ZM39.08,6.878l-.085-.05ZM17.653,6.855a21.026,21.026,0,0,1,10.661-3.1A21.021,21.021,0,0,0,17.653,6.855Zm10.72-3.1h0Z" transform="translate(16.14 12)" fill="#fff"/>
    </g>
    <path id="Path_8989" data-name="Path 8989" d="M80.381,66.719H33.735a1.753,1.753,0,0,0-.293-.115,5.673,5.673,0,0,1-4.437-7.389,44.791,44.791,0,0,1,2.434-5.938,10.224,10.224,0,0,1,6.595-5.543,18.212,18.212,0,0,1,4.98-.471c1.021.005,2.041,0,3.226,0-.343-.3-.58-.475-.779-.685-.811-.855-1.654-1.685-2.394-2.6a1.388,1.388,0,0,0-1.223-.594,9.654,9.654,0,0,1-9.912-9.935c0-2.211.027-4.423,0-6.634a25.648,25.648,0,0,1,2.734-12.178,25.011,25.011,0,0,1,8.568-9.672A24.787,24.787,0,0,1,67.167,2.928,24.955,24.955,0,0,1,77.6,11.556a23.611,23.611,0,0,1,4.425,12.115c.227,3.4.177,6.822.137,10.233a9.493,9.493,0,0,1-8.8,9.412,3.551,3.551,0,0,0-3.051,1.562,23.139,23.139,0,0,1-2.169,2.387c.1,0,.307,0,.511,0,1.567.01,3.137-.03,4.7.04a10.45,10.45,0,0,1,8.989,5.349A29.838,29.838,0,0,1,85.172,59.4a5.4,5.4,0,0,1-2.021,6.056,16.144,16.144,0,0,1-2.77,1.265M56.921,27.955a.726.726,0,0,1-.1.207,9.644,9.644,0,0,1-7.948,3.645c-1.567-.016-3.134,0-4.7,0h-.6c-.578,7.4,3.416,12.433,8.492,14.487a13.186,13.186,0,0,0,14.3-2.9h-.672c-1.524,0-3.048,0-4.572,0a1.983,1.983,0,0,1-1.775-.853,1.8,1.8,0,0,1-.12-1.949A1.886,1.886,0,0,1,61,39.538c2.576-.005,5.152,0,7.727-.015a.783.783,0,0,0,.6-.281A14.629,14.629,0,0,0,70.552,31.8c-1.874,0-3.715,0-5.556,0a9.185,9.185,0,0,1-5.41-1.581c-.919-.643-1.72-1.455-2.665-2.269m21.323-3.7c-.8-7.026-3.995-12.679-10.076-16.383C60.741,3.347,53.1,3.413,45.723,8c-5.966,3.709-9.043,9.327-9.744,16.234l3.854-.221a17.579,17.579,0,0,1,16.416-15.5,16.651,16.651,0,0,1,10.02,2.7,17.612,17.612,0,0,1,8,12.787l3.977.249M57.058,61.565l7.7-10.394h-15.4l7.7,10.394" transform="translate(-11.702 12.239)" fill="#fff"/>
    <path id="Union_8" data-name="Union 8" d="M13.38,46.653h15.4c-2.578,3.48-5.109,6.9-7.7,10.394Zm2.7-4.879C11,39.721,7.008,34.683,7.586,27.287h.6c1.567,0,3.134-.013,4.7,0a9.644,9.644,0,0,0,7.948-3.644.747.747,0,0,0,.1-.208c.944.814,1.745,1.626,2.665,2.269a9.184,9.184,0,0,0,5.41,1.582c1.841,0,3.682,0,5.556,0a14.635,14.635,0,0,1-1.22,7.437.785.785,0,0,1-.6.281c-2.576.019-5.151.01-7.728.015a1.885,1.885,0,0,0-1.781,1.055,1.794,1.794,0,0,0,.12,1.949,1.983,1.983,0,0,0,1.775.853c1.524,0,3.048,0,4.572,0h.671a12.951,12.951,0,0,1-9.345,3.865A13.159,13.159,0,0,1,16.077,41.774ZM38.289,19.486a17.611,17.611,0,0,0-8-12.788A16.654,16.654,0,0,0,20.271,4a17.578,17.578,0,0,0-16.417,15.5L0,19.714C.7,12.807,3.778,7.189,9.744,3.48,17.119-1.1,24.762-1.172,32.19,3.352c6.082,3.7,9.28,9.357,10.076,16.383Z" transform="translate(24.277 16.757)" fill="#d7d7e0"/>
  </g>
  <g id="call_icon" transform="translate(49 52)">
    <path id="Path_413" data-name="Path 413" d="M20,0A20,20,0,1,1,0,20,20,20,0,0,1,20,0Z" fill="#0cce48"/>
    <g id="vuesax_bold_call-calling" data-name="vuesax/bold/call-calling" transform="translate(8.571 8.571)">
      <g id="call-calling" transform="translate(0 0)">
        <path id="Vector" d="M4.162,4.9a.734.734,0,0,1-.733-.733,3.315,3.315,0,0,0-.943-1.724A2.658,2.658,0,0,0,.733,1.467.733.733,0,1,1,.733,0,4.048,4.048,0,0,1,3.562,1.438,4.494,4.494,0,0,1,4.9,4.162.744.744,0,0,1,4.162,4.9Z" transform="translate(12.619 5.333)" fill="#fff"/>
        <path id="Vector-2" data-name="Vector" d="M7.59,8.333A.734.734,0,0,1,6.857,7.6,6.131,6.131,0,0,0,.733,1.476.738.738,0,0,1,.724,0a7.609,7.609,0,0,1,7.6,7.6A.74.74,0,0,1,7.59,8.333Z" transform="translate(12.629 1.905)" fill="#fff"/>
        <path id="Vector-3" data-name="Vector" d="M8.619,12.333,6.857,14.1a.957.957,0,0,1-1.343.01c-.1-.1-.21-.2-.314-.3a27.061,27.061,0,0,1-2.657-3.114A16.979,16.979,0,0,1,.676,7.438,8.177,8.177,0,0,1,0,4.324,4.927,4.927,0,0,1,.343,2.486,4.383,4.383,0,0,1,1.438.9,2.79,2.79,0,0,1,3.419,0,1.79,1.79,0,0,1,4.19.171,1.553,1.553,0,0,1,4.829.7l2.21,3.114a3.259,3.259,0,0,1,.381.667,1.505,1.505,0,0,1,.133.581,1.293,1.293,0,0,1-.2.676,3.239,3.239,0,0,1-.533.676L6.1,7.171a.51.51,0,0,0-.152.381.865.865,0,0,0,.029.219c.029.076.057.133.076.19a7.9,7.9,0,0,0,.886,1.219c.429.5.886,1,1.381,1.5.1.1.2.19.3.286A.954.954,0,0,1,8.619,12.333Z" transform="translate(1.905 1.905)" fill="#fff"/>
        <path id="Vector-4" data-name="Vector" d="M11.7,4.059a2.419,2.419,0,0,1-.143.81,2.327,2.327,0,0,1-.1.229,3.93,3.93,0,0,1-.648.971A4.294,4.294,0,0,1,9.253,7.192c-.01,0-.019.01-.029.01A4.811,4.811,0,0,1,7.4,7.554a7.937,7.937,0,0,1-3.1-.7A16.728,16.728,0,0,1,1.015,4.973C.643,4.7-1.336,3-1.689,2.707L1.268-.559c.267.2,2.271,1.923,2.471,2.028.048.019.1.048.171.076a.658.658,0,0,0,.238.038.524.524,0,0,0,.39-.162L5.262.707A2.922,2.922,0,0,1,5.948.173a1.268,1.268,0,0,1,.676-.2A1.52,1.52,0,0,1,7.205.1a3.683,3.683,0,0,1,.667.371l3.152,2.238a1.445,1.445,0,0,1,.524.61A1.954,1.954,0,0,1,11.7,4.059Z" transform="translate(9.223 13.398)" fill="#fff"/>
        <path id="Vector-5" data-name="Vector" d="M0,0H22.857V22.857H0Z" transform="translate(22.857 22.857) rotate(180)" fill="none" opacity="0"/>
      </g>
    </g>
  </g>
</svg>
