<svg xmlns="http://www.w3.org/2000/svg" width="50" height="50" viewBox="0 0 50 50">
  <g id="total_sales_icon" transform="translate(-236 -252)">
    <g id="status-up" transform="translate(236 252)">
      <path id="Vector" d="M29.563,0H12.1C4.521,0,0,4.521,0,12.1V29.542c0,7.6,4.521,12.125,12.1,12.125H29.542c7.583,0,12.1-4.521,12.1-12.1V12.1C41.667,4.521,37.146,0,29.563,0ZM11.729,33.646a1.563,1.563,0,0,1-3.125,0V29.333a1.563,1.563,0,0,1,3.125,0Zm10.667,0a1.563,1.563,0,0,1-3.125,0V25A1.563,1.563,0,0,1,22.4,25Zm10.667,0a1.563,1.563,0,0,1-3.125,0V20.688a1.563,1.563,0,1,1,3.125,0Zm0-19.542a1.563,1.563,0,1,1-3.125,0V12.083a40.692,40.692,0,0,1-19.4,11.167,1.154,1.154,0,0,1-.375.042A1.577,1.577,0,0,1,8.646,22.1a1.558,1.558,0,0,1,1.146-1.9A37.647,37.647,0,0,0,28.021,9.563h-2.6a1.562,1.562,0,1,1,0-3.125h6.1c.083,0,.146.042.229.042a1.661,1.661,0,0,1,.313.062,2.082,2.082,0,0,1,.292.167c.063.042.125.063.188.1.021.021.021.042.042.042a2.206,2.206,0,0,1,.208.25.7.7,0,0,1,.146.229A1.033,1.033,0,0,1,33,7.6a1.579,1.579,0,0,1,.063.333c0,.021.021.042.021.063v6.1Z" transform="translate(4.167 4.167)" fill="#7f22ff"/>
      <path id="Vector-2" data-name="Vector" d="M0,0H50V50H0Z" transform="translate(50 50) rotate(180)" fill="none" opacity="0"/>
    </g>
  </g>
</svg>
