<?xml version="1.0" standalone="no"?>
<!DOCTYPE svg PUBLIC "-//W3C//DTD SVG 20010904//EN"
 "http://www.w3.org/TR/2001/REC-SVG-20010904/DTD/svg10.dtd">
<svg version="1.0" xmlns="http://www.w3.org/2000/svg"
    width="50" height="50" viewBox="0 0 106.000000 103.000000"
 preserveAspectRatio="xMidYMid meet">

<g transform="translate(0.000000,103.000000) scale(0.100000,-0.100000)"
fill="#000000" stroke="none">
<path d="M217 1016 c-75 -20 -127 -63 -162 -131 l-30 -59 -3 -293 c-3 -241 0
-304 12 -347 22 -75 65 -129 127 -160 l53 -26 320 0 c316 0 322 1 372 24 60
28 107 82 131 151 16 43 18 89 18 335 0 248 -2 292 -18 336 -24 69 -75 126
-139 155 -52 23 -61 24 -343 26 -216 2 -302 -1 -338 -11z m247 -242 c10 -27 7
-34 -40 -84 l-47 -50 221 0 c209 0 222 -1 232 -19 13 -25 13 -27 -6 -45 -13
-14 -54 -16 -288 -16 -198 0 -275 3 -284 12 -25 25 -11 54 70 135 62 63 89 83
109 83 15 0 29 -7 33 -16z m360 -330 c9 -8 16 -21 16 -28 0 -7 -42 -54 -94
-105 -85 -83 -97 -91 -116 -81 -39 21 -35 39 21 96 l53 54 -230 2 -229 3 -3
23 c-7 51 0 52 294 52 234 0 275 -2 288 -16z"/>
</g>
</svg>
