<svg xmlns="http://www.w3.org/2000/svg" width="40" height="40" viewBox="0 0 40 40">
  <g id="wallet_icon" transform="translate(-108 -380)">
    <g id="wallet-money" transform="translate(108 380)">
      <path id="Vector" d="M31.617,20.967c-.4,4.45-3.617,7.367-8.283,7.367h-15A8.336,8.336,0,0,1,0,20V8.333C0,3.8,2.733.633,6.983.1A8.87,8.87,0,0,1,8.333,0h15a7.622,7.622,0,0,1,1.25.083,7.666,7.666,0,0,1,7.033,7.283.818.818,0,0,1-.833.883H28.2a5.737,5.737,0,0,0-4.15,1.717,5.863,5.863,0,0,0-1.75,4.7,6.075,6.075,0,0,0,6.1,5.417h2.383A.818.818,0,0,1,31.617,20.967Z" transform="translate(3.333 5.833)" fill="#7f22ff"/>
      <path id="Vector-2" data-name="Vector" d="M0,0H40V40H0Z" transform="translate(40 40) rotate(180)" fill="none" opacity="0"/>
      <path id="Vector-3" data-name="Vector" d="M8.549,1.7V5.133a1.711,1.711,0,0,1-1.667,1.7H3.615a3.554,3.554,0,0,1-3.6-3.117A3.347,3.347,0,0,1,1.015,1a3.322,3.322,0,0,1,2.4-1H6.882A1.711,1.711,0,0,1,8.549,1.7Z" transform="translate(28.118 16.583)" fill="#7f22ff"/>
    </g>
  </g>
</svg>
